<svg xmlns="http://www.w3.org/2000/svg" xmlns:xlink="http://www.w3.org/1999/xlink" width="500" zoomAndPan="magnify" viewBox="0 0 375 374.999991" height="500" preserveAspectRatio="xMidYMid meet" version="1.0"><defs><clipPath id="0494b327c4"><path d="M 36.417969 36.417969 L 338.667969 36.417969 L 338.667969 338.667969 L 36.417969 338.667969 Z M 36.417969 36.417969 " clip-rule="nonzero"/></clipPath></defs><g clip-path="url(#0494b327c4)"><path fill="#000000" d="M 187.542969 36.417969 C 185.070312 36.417969 182.597656 36.476562 180.125 36.597656 C 177.65625 36.71875 175.191406 36.902344 172.730469 37.144531 C 170.265625 37.386719 167.8125 37.691406 165.367188 38.050781 C 162.921875 38.414062 160.484375 38.839844 158.058594 39.320312 C 155.632812 39.804688 153.21875 40.34375 150.820312 40.945312 C 148.421875 41.546875 146.039062 42.207031 143.671875 42.925781 C 141.304688 43.640625 138.957031 44.417969 136.628906 45.25 C 134.300781 46.085938 131.992188 46.972656 129.707031 47.921875 C 127.421875 48.867188 125.164062 49.867188 122.925781 50.925781 C 120.691406 51.984375 118.484375 53.09375 116.300781 54.261719 C 114.121094 55.425781 111.96875 56.644531 109.847656 57.917969 C 107.726562 59.1875 105.636719 60.511719 103.582031 61.886719 C 101.523438 63.261719 99.503906 64.683594 97.515625 66.15625 C 95.53125 67.628906 93.582031 69.152344 91.667969 70.71875 C 89.757812 72.289062 87.886719 73.90625 86.050781 75.566406 C 84.21875 77.226562 82.429688 78.929688 80.679688 80.679688 C 78.929688 82.429688 77.226562 84.21875 75.566406 86.050781 C 73.90625 87.886719 72.289062 89.757812 70.71875 91.667969 C 69.152344 93.582031 67.628906 95.53125 66.15625 97.515625 C 64.683594 99.503906 63.261719 101.523438 61.886719 103.582031 C 60.511719 105.636719 59.1875 107.726562 57.917969 109.847656 C 56.644531 111.96875 55.425781 114.121094 54.261719 116.300781 C 53.09375 118.484375 51.984375 120.691406 50.925781 122.925781 C 49.867188 125.164062 48.867188 127.421875 47.921875 129.707031 C 46.972656 131.992188 46.085938 134.300781 45.25 136.628906 C 44.417969 138.957031 43.640625 141.304688 42.925781 143.671875 C 42.207031 146.039062 41.546875 148.421875 40.945312 150.820312 C 40.34375 153.21875 39.804688 155.632812 39.320312 158.058594 C 38.839844 160.484375 38.414062 162.921875 38.050781 165.367188 C 37.691406 167.8125 37.386719 170.265625 37.144531 172.730469 C 36.902344 175.191406 36.71875 177.65625 36.597656 180.125 C 36.476562 182.597656 36.417969 185.070312 36.417969 187.542969 C 36.417969 190.015625 36.476562 192.488281 36.597656 194.957031 C 36.71875 197.425781 36.902344 199.894531 37.144531 202.355469 C 37.386719 204.816406 37.691406 207.269531 38.050781 209.714844 C 38.414062 212.164062 38.839844 214.597656 39.320312 217.023438 C 39.804688 219.449219 40.34375 221.863281 40.945312 224.261719 C 41.546875 226.660156 42.207031 229.042969 42.925781 231.410156 C 43.640625 233.777344 44.417969 236.125 45.25 238.453125 C 46.085938 240.78125 46.972656 243.089844 47.921875 245.375 C 48.867188 247.660156 49.867188 249.921875 50.925781 252.15625 C 51.984375 254.390625 53.09375 256.601562 54.261719 258.78125 C 55.425781 260.960938 56.644531 263.113281 57.917969 265.234375 C 59.1875 267.355469 60.511719 269.445312 61.886719 271.503906 C 63.261719 273.558594 64.683594 275.582031 66.15625 277.566406 C 67.628906 279.554688 69.152344 281.503906 70.71875 283.414062 C 72.289062 285.328125 73.90625 287.199219 75.566406 289.03125 C 77.226562 290.863281 78.929688 292.65625 80.679688 294.402344 C 82.429688 296.152344 84.21875 297.855469 86.050781 299.519531 C 87.886719 301.179688 89.757812 302.792969 91.667969 304.363281 C 93.582031 305.933594 95.53125 307.453125 97.515625 308.925781 C 99.503906 310.398438 101.523438 311.824219 103.582031 313.199219 C 105.636719 314.570312 107.726562 315.894531 109.847656 317.164062 C 111.96875 318.4375 114.121094 319.65625 116.300781 320.820312 C 118.484375 321.988281 120.691406 323.101562 122.925781 324.15625 C 125.164062 325.214844 127.421875 326.214844 129.707031 327.164062 C 131.992188 328.109375 134.300781 329 136.628906 329.832031 C 138.957031 330.664062 141.304688 331.441406 143.671875 332.160156 C 146.039062 332.878906 148.421875 333.535156 150.820312 334.136719 C 153.21875 334.738281 155.632812 335.28125 158.058594 335.761719 C 160.484375 336.246094 162.921875 336.667969 165.367188 337.03125 C 167.8125 337.394531 170.265625 337.695312 172.730469 337.9375 C 175.191406 338.179688 177.65625 338.363281 180.125 338.484375 C 182.597656 338.605469 185.070312 338.667969 187.542969 338.667969 C 190.015625 338.667969 192.488281 338.605469 194.957031 338.484375 C 197.425781 338.363281 199.894531 338.179688 202.355469 337.9375 C 204.816406 337.695312 207.269531 337.394531 209.714844 337.03125 C 212.164062 336.667969 214.597656 336.246094 217.023438 335.761719 C 219.449219 335.28125 221.863281 334.738281 224.261719 334.136719 C 226.660156 333.535156 229.042969 332.878906 231.410156 332.160156 C 233.777344 331.441406 236.125 330.664062 238.453125 329.832031 C 240.78125 329 243.089844 328.109375 245.375 327.164062 C 247.660156 326.214844 249.921875 325.214844 252.15625 324.15625 C 254.390625 323.101562 256.601562 321.988281 258.78125 320.820312 C 260.960938 319.65625 263.113281 318.4375 265.234375 317.164062 C 267.355469 315.894531 269.445312 314.570312 271.503906 313.199219 C 273.558594 311.824219 275.582031 310.398438 277.566406 308.925781 C 279.554688 307.453125 281.503906 305.933594 283.414062 304.363281 C 285.328125 302.792969 287.199219 301.179688 289.03125 299.519531 C 290.863281 297.855469 292.65625 296.152344 294.402344 294.402344 C 296.152344 292.65625 297.855469 290.863281 299.519531 289.03125 C 301.179688 287.199219 302.792969 285.328125 304.363281 283.414062 C 305.933594 281.503906 307.453125 279.554688 308.925781 277.566406 C 310.398438 275.582031 311.824219 273.558594 313.199219 271.503906 C 314.570312 269.445312 315.894531 267.355469 317.164062 265.234375 C 318.4375 263.113281 319.65625 260.960938 320.820312 258.78125 C 321.988281 256.601562 323.101562 254.390625 324.15625 252.15625 C 325.214844 249.921875 326.214844 247.660156 327.164062 245.375 C 328.109375 243.089844 329 240.78125 329.832031 238.453125 C 330.664062 236.125 331.441406 233.777344 332.160156 231.410156 C 332.878906 229.042969 333.535156 226.660156 334.136719 224.261719 C 334.738281 221.863281 335.28125 219.449219 335.761719 217.023438 C 336.246094 214.597656 336.667969 212.164062 337.03125 209.714844 C 337.394531 207.269531 337.695312 204.816406 337.9375 202.355469 C 338.179688 199.894531 338.363281 197.425781 338.484375 194.957031 C 338.605469 192.488281 338.667969 190.015625 338.667969 187.542969 C 338.667969 185.070312 338.605469 182.597656 338.484375 180.125 C 338.363281 177.65625 338.179688 175.191406 337.9375 172.730469 C 337.695312 170.269531 337.390625 167.816406 337.027344 165.367188 C 336.664062 162.921875 336.242188 160.484375 335.761719 158.058594 C 335.277344 155.632812 334.734375 153.222656 334.132812 150.824219 C 333.53125 148.425781 332.875 146.042969 332.15625 143.675781 C 331.4375 141.308594 330.660156 138.960938 329.828125 136.632812 C 328.996094 134.304688 328.105469 131.996094 327.15625 129.710938 C 326.210938 127.425781 325.210938 125.167969 324.152344 122.929688 C 323.09375 120.695312 321.984375 118.488281 320.816406 116.304688 C 319.652344 114.125 318.433594 111.972656 317.160156 109.851562 C 315.890625 107.730469 314.566406 105.640625 313.191406 103.585938 C 311.816406 101.53125 310.394531 99.507812 308.921875 97.523438 C 307.449219 95.535156 305.925781 93.585938 304.355469 91.675781 C 302.789062 89.761719 301.171875 87.890625 299.511719 86.058594 C 297.851562 84.226562 296.148438 82.433594 294.398438 80.6875 C 292.648438 78.9375 290.859375 77.230469 289.027344 75.570312 C 287.191406 73.910156 285.320312 72.296875 283.410156 70.726562 C 281.496094 69.15625 279.546875 67.636719 277.5625 66.164062 C 275.574219 64.691406 273.554688 63.265625 271.496094 61.890625 C 269.441406 60.519531 267.351562 59.195312 265.230469 57.921875 C 263.109375 56.652344 260.957031 55.433594 258.777344 54.265625 C 256.597656 53.101562 254.386719 51.988281 252.152344 50.933594 C 249.917969 49.875 247.65625 48.871094 245.371094 47.925781 C 243.085938 46.980469 240.78125 46.089844 238.453125 45.253906 C 236.125 44.421875 233.777344 43.648438 231.410156 42.929688 C 229.042969 42.210938 226.660156 41.550781 224.261719 40.949219 C 221.863281 40.347656 219.449219 39.804688 217.023438 39.324219 C 214.597656 38.839844 212.160156 38.417969 209.714844 38.054688 C 207.269531 37.691406 204.816406 37.390625 202.355469 37.144531 C 199.894531 36.902344 197.425781 36.722656 194.957031 36.601562 C 192.488281 36.476562 190.015625 36.417969 187.542969 36.417969 Z M 262.300781 223.671875 L 256.730469 248.792969 C 256.710938 249.769531 256.648438 250.738281 256.539062 251.707031 C 256.425781 252.675781 256.273438 253.636719 256.070312 254.589844 C 255.867188 255.542969 255.621094 256.484375 255.332031 257.414062 C 255.039062 258.34375 254.707031 259.257812 254.328125 260.15625 C 253.949219 261.054688 253.527344 261.933594 253.066406 262.789062 C 252.605469 263.648438 252.101562 264.484375 251.5625 265.292969 C 251.019531 266.101562 250.441406 266.886719 249.824219 267.640625 C 249.207031 268.394531 248.558594 269.121094 247.875 269.8125 C 247.1875 270.503906 246.472656 271.164062 245.722656 271.789062 C 244.976562 272.414062 244.199219 273 243.394531 273.550781 C 242.59375 274.101562 241.765625 274.613281 240.910156 275.085938 C 240.058594 275.558594 239.1875 275.988281 238.292969 276.375 C 237.398438 276.765625 236.488281 277.109375 235.5625 277.410156 C 234.636719 277.714844 233.695312 277.96875 232.746094 278.183594 C 231.796875 278.394531 230.835938 278.5625 229.871094 278.683594 C 228.902344 278.804688 227.933594 278.878906 226.957031 278.90625 C 225.984375 278.9375 225.011719 278.917969 224.039062 278.855469 C 223.066406 278.789062 222.097656 278.679688 221.136719 278.523438 C 220.175781 278.367188 219.222656 278.164062 218.28125 277.917969 C 217.339844 277.671875 216.410156 277.378906 215.496094 277.042969 C 214.582031 276.707031 213.683594 276.328125 212.804688 275.910156 C 211.925781 275.488281 211.070312 275.027344 210.234375 274.523438 C 209.398438 274.019531 208.589844 273.480469 207.808594 272.898438 C 207.023438 272.320312 206.269531 271.703125 205.546875 271.050781 C 204.824219 270.402344 204.128906 269.714844 203.472656 269 C 202.8125 268.28125 202.1875 267.535156 201.601562 266.757812 C 201.011719 265.980469 200.460938 265.175781 199.953125 264.347656 C 199.441406 263.519531 198.96875 262.664062 198.539062 261.792969 C 198.109375 260.917969 197.722656 260.023438 197.375 259.113281 C 197.03125 258.203125 196.730469 257.277344 196.472656 256.335938 C 196.214844 255.398438 196.003906 254.445312 195.835938 253.488281 C 195.671875 252.527344 195.550781 251.5625 195.476562 250.589844 C 194.898438 250.175781 194.292969 249.8125 193.660156 249.492188 C 193.027344 249.175781 192.371094 248.910156 191.695312 248.691406 C 191.019531 248.476562 190.332031 248.3125 189.632812 248.203125 C 188.933594 248.09375 188.226562 248.039062 187.519531 248.039062 C 186.808594 248.039062 186.105469 248.09375 185.402344 248.203125 C 184.703125 248.3125 184.015625 248.476562 183.339844 248.691406 C 182.664062 248.910156 182.011719 249.175781 181.375 249.492188 C 180.742188 249.8125 180.136719 250.175781 179.558594 250.589844 C 179.480469 251.554688 179.351562 252.515625 179.179688 253.472656 C 179.007812 254.425781 178.792969 255.371094 178.53125 256.304688 C 178.269531 257.238281 177.964844 258.160156 177.613281 259.066406 C 177.265625 259.96875 176.875 260.855469 176.441406 261.726562 C 176.007812 262.59375 175.535156 263.4375 175.023438 264.261719 C 174.507812 265.085938 173.957031 265.882812 173.371094 266.65625 C 172.78125 267.425781 172.15625 268.167969 171.496094 268.878906 C 170.835938 269.589844 170.144531 270.269531 169.421875 270.917969 C 168.699219 271.5625 167.945312 272.171875 167.164062 272.746094 C 166.382812 273.324219 165.578125 273.859375 164.742188 274.359375 C 163.910156 274.855469 163.058594 275.3125 162.179688 275.730469 C 161.304688 276.148438 160.410156 276.523438 159.5 276.855469 C 158.589844 277.1875 157.664062 277.476562 156.726562 277.722656 C 155.785156 277.96875 154.835938 278.167969 153.878906 278.320312 C 152.921875 278.476562 151.960938 278.585938 150.992188 278.648438 C 150.023438 278.714844 149.054688 278.730469 148.085938 278.703125 C 147.113281 278.671875 146.148438 278.597656 145.183594 278.480469 C 144.222656 278.359375 143.265625 278.195312 142.320312 277.984375 C 141.375 277.773438 140.4375 277.519531 139.515625 277.21875 C 138.59375 276.917969 137.6875 276.578125 136.796875 276.191406 C 135.90625 275.804688 135.035156 275.378906 134.183594 274.910156 C 133.335938 274.445312 132.507812 273.9375 131.707031 273.390625 C 130.90625 272.84375 130.132812 272.261719 129.382812 271.640625 C 128.636719 271.019531 127.921875 270.367188 127.238281 269.679688 C 126.554688 268.992188 125.902344 268.273438 125.285156 267.523438 C 124.671875 266.777344 124.089844 266 123.546875 265.195312 C 123.003906 264.390625 122.5 263.5625 122.039062 262.710938 C 121.574219 261.859375 121.148438 260.984375 120.769531 260.09375 C 120.386719 259.203125 120.050781 258.292969 119.753906 257.371094 C 119.457031 256.445312 119.207031 255.507812 119 254.5625 C 118.792969 253.613281 118.632812 252.65625 118.519531 251.695312 C 118.402344 250.730469 118.332031 249.765625 118.308594 248.792969 L 112.78125 223.90625 C 112.714844 223.589844 112.679688 223.273438 112.675781 222.949219 C 112.671875 222.628906 112.699219 222.308594 112.757812 221.992188 C 112.816406 221.671875 112.902344 221.363281 113.019531 221.066406 C 113.140625 220.765625 113.285156 220.480469 113.460938 220.207031 C 113.632812 219.9375 113.832031 219.683594 114.054688 219.453125 C 114.277344 219.21875 114.519531 219.007812 114.785156 218.824219 C 115.046875 218.636719 115.324219 218.480469 115.621094 218.347656 C 115.914062 218.21875 116.21875 218.117188 116.53125 218.042969 C 116.847656 217.972656 117.164062 217.929688 117.488281 217.921875 C 117.808594 217.910156 118.128906 217.929688 118.449219 217.984375 C 118.765625 218.035156 119.074219 218.117188 119.378906 218.230469 C 119.679688 218.34375 119.96875 218.484375 120.242188 218.652344 C 120.519531 218.820312 120.773438 219.015625 121.011719 219.234375 C 121.246094 219.453125 121.460938 219.691406 121.652344 219.953125 C 121.84375 220.210938 122.003906 220.488281 122.140625 220.78125 C 122.277344 221.070312 122.386719 221.375 122.464844 221.6875 L 124.351562 230.046875 C 125.203125 228.910156 126.132812 227.839844 127.132812 226.832031 C 128.132812 225.824219 129.195312 224.890625 130.328125 224.03125 C 131.457031 223.171875 132.640625 222.390625 133.878906 221.695312 C 135.113281 221 136.394531 220.390625 137.714844 219.875 C 139.039062 219.355469 140.386719 218.929688 141.769531 218.597656 C 143.148438 218.265625 144.546875 218.03125 145.957031 217.890625 C 147.371094 217.753906 148.789062 217.710938 150.207031 217.769531 C 151.625 217.828125 153.03125 217.980469 154.429688 218.234375 C 155.828125 218.488281 157.199219 218.835938 158.550781 219.277344 C 159.898438 219.71875 161.210938 220.253906 162.484375 220.875 C 163.761719 221.5 164.988281 222.210938 166.164062 223.003906 C 167.339844 223.796875 168.457031 224.667969 169.515625 225.617188 C 170.570312 226.566406 171.558594 227.582031 172.472656 228.667969 C 173.386719 229.753906 174.226562 230.894531 174.980469 232.097656 C 175.738281 233.296875 176.410156 234.542969 176.996094 235.839844 C 177.582031 237.132812 178.074219 238.460938 178.472656 239.820312 C 179.90625 239.203125 181.382812 238.734375 182.910156 238.417969 C 184.4375 238.101562 185.980469 237.945312 187.542969 237.945312 C 189.101562 237.945312 190.644531 238.101562 192.171875 238.417969 C 193.699219 238.734375 195.179688 239.203125 196.609375 239.820312 C 197 238.449219 197.484375 237.113281 198.058594 235.8125 C 198.636719 234.507812 199.300781 233.25 200.050781 232.039062 C 200.804688 230.832031 201.636719 229.679688 202.550781 228.585938 C 203.464844 227.488281 204.449219 226.464844 205.503906 225.507812 C 206.558594 224.550781 207.675781 223.671875 208.855469 222.871094 C 210.035156 222.070312 211.261719 221.355469 212.542969 220.726562 C 213.820312 220.097656 215.136719 219.558594 216.488281 219.113281 C 217.84375 218.667969 219.222656 218.320312 220.625 218.066406 C 222.027344 217.8125 223.4375 217.65625 224.863281 217.601562 C 226.285156 217.546875 227.707031 217.589844 229.125 217.730469 C 230.542969 217.875 231.945312 218.113281 233.328125 218.449219 C 234.714844 218.789062 236.066406 219.222656 237.390625 219.746094 C 238.714844 220.273438 239.996094 220.890625 241.234375 221.597656 C 242.472656 222.300781 243.65625 223.089844 244.78125 223.960938 C 245.910156 224.832031 246.972656 225.777344 247.96875 226.796875 C 248.964844 227.816406 249.886719 228.898438 250.730469 230.046875 L 252.621094 221.449219 C 252.691406 221.128906 252.792969 220.820312 252.925781 220.519531 C 253.058594 220.222656 253.21875 219.9375 253.40625 219.671875 C 253.59375 219.402344 253.808594 219.15625 254.042969 218.929688 C 254.28125 218.703125 254.539062 218.503906 254.816406 218.328125 C 255.09375 218.152344 255.382812 218.007812 255.691406 217.890625 C 255.996094 217.773438 256.308594 217.6875 256.632812 217.632812 C 256.957031 217.574219 257.28125 217.554688 257.609375 217.5625 C 257.9375 217.570312 258.257812 217.613281 258.578125 217.6875 C 258.898438 217.757812 259.207031 217.863281 259.503906 217.996094 C 259.804688 218.132812 260.085938 218.292969 260.351562 218.484375 C 260.621094 218.675781 260.863281 218.890625 261.089844 219.128906 C 261.3125 219.367188 261.511719 219.625 261.683594 219.902344 C 261.859375 220.179688 262.003906 220.472656 262.117188 220.78125 C 262.234375 221.085938 262.316406 221.402344 262.371094 221.726562 C 262.421875 222.046875 262.441406 222.375 262.433594 222.699219 C 262.421875 223.027344 262.375 223.351562 262.300781 223.671875 Z M 93.089844 178.144531 C 93.089844 168.226562 103.667969 161.519531 115.992188 157.035156 L 114.292969 161.238281 L 114.152344 161.566406 C 114.027344 161.875 113.9375 162.195312 113.878906 162.523438 C 113.820312 162.851562 113.792969 163.179688 113.800781 163.515625 C 113.804688 163.847656 113.847656 164.175781 113.917969 164.5 C 113.992188 164.828125 114.097656 165.140625 114.234375 165.445312 C 114.371094 165.75 114.535156 166.035156 114.730469 166.308594 C 114.921875 166.578125 115.140625 166.828125 115.386719 167.054688 C 115.628906 167.28125 115.894531 167.480469 116.179688 167.65625 C 116.460938 167.828125 116.761719 167.972656 117.074219 168.085938 C 117.386719 168.199219 117.707031 168.28125 118.039062 168.332031 C 118.367188 168.382812 118.699219 168.398438 119.03125 168.378906 C 119.363281 168.363281 119.691406 168.3125 120.015625 168.230469 C 120.335938 168.148438 120.648438 168.03125 120.949219 167.886719 C 121.25 167.742188 121.53125 167.566406 121.796875 167.367188 C 122.058594 167.164062 122.300781 166.9375 122.523438 166.6875 C 122.742188 166.4375 122.933594 166.164062 123.097656 165.875 C 123.261719 165.585938 123.398438 165.285156 123.503906 164.96875 C 126.476562 157.601562 143.480469 114.90625 146.832031 106.59375 C 147.0625 106.035156 147.320312 105.492188 147.609375 104.960938 C 147.898438 104.429688 148.214844 103.914062 148.558594 103.417969 C 148.902344 102.921875 149.269531 102.445312 149.664062 101.988281 C 150.0625 101.53125 150.480469 101.097656 150.921875 100.683594 C 151.367188 100.273438 151.828125 99.886719 152.3125 99.527344 C 152.796875 99.164062 153.300781 98.832031 153.820312 98.523438 C 154.339844 98.21875 154.875 97.9375 155.425781 97.691406 C 155.976562 97.441406 156.539062 97.222656 157.113281 97.035156 C 157.6875 96.847656 158.269531 96.691406 158.863281 96.566406 C 159.453125 96.441406 160.050781 96.347656 160.652344 96.285156 C 161.253906 96.226562 161.855469 96.199219 162.460938 96.203125 C 163.0625 96.207031 163.664062 96.246094 164.265625 96.316406 C 164.867188 96.386719 165.460938 96.488281 166.050781 96.621094 C 166.640625 96.757812 167.21875 96.921875 167.789062 97.121094 C 168.359375 97.316406 168.921875 97.542969 169.464844 97.800781 C 170.011719 98.058594 170.542969 98.347656 171.058594 98.660156 L 184.140625 106.878906 C 184.679688 107.203125 185.25 107.449219 185.855469 107.617188 C 186.460938 107.785156 187.078125 107.871094 187.707031 107.871094 C 188.335938 107.871094 188.953125 107.785156 189.558594 107.617188 C 190.164062 107.449219 190.734375 107.203125 191.273438 106.878906 C 196.890625 103.761719 206.433594 95.640625 213.328125 96.300781 C 214.144531 96.3125 214.957031 96.390625 215.765625 96.523438 C 216.574219 96.660156 217.367188 96.851562 218.144531 97.105469 C 218.925781 97.355469 219.679688 97.664062 220.414062 98.03125 C 221.144531 98.394531 221.847656 98.808594 222.519531 99.277344 C 223.191406 99.746094 223.824219 100.261719 224.417969 100.824219 C 225.015625 101.386719 225.5625 101.988281 226.070312 102.632812 C 226.574219 103.277344 227.03125 103.957031 227.4375 104.667969 C 227.839844 105.378906 228.191406 106.117188 228.488281 106.878906 C 238.640625 133.042969 243.503906 146.644531 251.34375 164.777344 C 251.476562 165.089844 251.640625 165.382812 251.832031 165.65625 C 252.023438 165.933594 252.246094 166.1875 252.492188 166.414062 C 252.734375 166.644531 253.003906 166.847656 253.292969 167.023438 C 253.578125 167.195312 253.882812 167.339844 254.199219 167.449219 C 254.519531 167.5625 254.84375 167.636719 255.175781 167.683594 C 255.511719 167.726562 255.847656 167.734375 256.183594 167.707031 C 256.515625 167.679688 256.847656 167.617188 257.167969 167.523438 C 257.492188 167.425781 257.800781 167.300781 258.097656 167.140625 C 262.585938 164.824219 260.316406 160.246094 258.710938 156.890625 C 271.226562 161.378906 281.996094 168.179688 281.996094 178.144531 C 281.617188 219.796875 93.464844 219.796875 93.089844 178.144531 Z M 93.089844 178.144531 " fill-opacity="1" fill-rule="nonzero"/></g></svg>