<?xml version="1.0" encoding="UTF-8"?>
<svg id="Vrstva_1" data-name="Vrstva 1" xmlns="http://www.w3.org/2000/svg" version="1.1" viewBox="0 0 236.84 60.09">
  <defs>
    <style>
      .cls-1 {
        fill: url(#Nepojmenovaný_přechod_2);
      }

      .cls-1, .cls-2 {
        stroke-width: 0px;
      }

      .cls-2 {
        fill: #34393b;
      }
    </style>
    <linearGradient id="Nepojmenovaný_přechod_2" x1="-203.61" y1="109.11" x2="-160.56" y2="152.17" gradientTransform="translate(262.1 161.49) scale(1 -1)" gradientUnits="userSpaceOnUse">
      <stop offset="0" stop-color="#b6592e"/>
      <stop offset=".13" stop-color="#ca7934"/>
      <stop offset=".27" stop-color="#dd9839"/>
      <stop offset=".43" stop-color="#ecaf3e"/>
      <stop offset=".6" stop-color="#f6c041"/>
      <stop offset=".78" stop-color="#fdca43"/>
      <stop offset="1" stop-color="#ffce44"/>
    </linearGradient>
  </defs>
  <path class="cls-1" d="M75.56,25.87l-9.36.68v-6.57c7.28-.63,18.88-1.65,26.02-2.27v6.94c-5.54.4-11.11.81-16.66,1.21h0ZM69.86,34.74c7.45-.41,14.91-.82,22.36-1.22v-6.94c-8.42.58-17.56,1.21-26.02,1.79v6.57c.46-.03,3.27-.18,3.66-.2ZM89.43,7.24c.88-.1,1.92-.21,2.79-.31V0l-26.02,3.22v6.57l22.55-2.47.68-.07h0ZM82.72,16.66c3.15-.29,6.35-.58,9.5-.87v-6.94c-3.27.34-22.37,2.36-26.02,2.74v6.57l15.86-1.45.66-.06h0ZM67.38,43.28c8.28-.3,16.57-.6,24.84-.91v-6.94c-8.67.44-17.35.88-26.02,1.32v6.57c.29,0,.89-.03,1.18-.04ZM92.22,53.15c-8.67.12-17.35.25-26.02.37v6.57h26.02v-6.94ZM67.38,51.68c8.27-.15,16.56-.3,24.84-.45v-6.94c-8.67.28-17.35.56-26.02.85v6.57c.29,0,.89-.02,1.18-.02h0Z"/>
  <path class="cls-2" d="M0,11.4v48.69h62.65V3.65L0,11.4ZM21.63,49.62l-7.41-11.55-3.03,4.31v7.5l-5.09.13v-29.29l5.09-.5v13.86l10.18-14.86,6.15-.6-9.82,14.4,10.41,16.44-6.47.16h-.01ZM41.74,49.11l-11.47.29v-31.06l11.47-1.13c8.65-.85,14.78,5.05,14.78,15.04s-6.13,16.64-14.78,16.86Z"/>
  <path class="cls-2" d="M41.44,23.3l-5.41.46v19.52l5.41-.21c5.2-.2,8.68-4.2,8.68-10.42s-3.47-9.79-8.68-9.35Z"/>
  <path class="cls-2" d="M105.54,19.51h2.24v4.02l3.93-4.02h2.43l-3.54,3.76,3.93,6.26h-2.48l-3-4.9-1.27,1.22v3.68h-2.24v-10.03h0Z"/>
  <path class="cls-2" d="M116.61,19.51h2.23v5.97c0,.85.16,1.48.48,1.9.32.41.85.62,1.6.62s1.28-.21,1.59-.62c.31-.41.47-1.04.47-1.9v-5.97h2.23v5.97c0,.76-.1,1.41-.3,1.95-.2.54-.48.99-.85,1.34s-.82.61-1.35.77-1.13.25-1.8.25-1.28-.08-1.81-.25-.98-.43-1.35-.78-.65-.8-.84-1.36c-.19-.55-.28-1.21-.28-1.97v-5.93h-.02Z"/>
  <path class="cls-2" d="M128.67,19.51h2.23v8.23h5.05l-.24,1.8h-7.03v-10.03h0Z"/>
  <path class="cls-2" d="M139.58,21.32h-3.21v-1.81h8.66v1.81h-3.21v8.22h-2.24v-8.22h0Z"/>
  <path class="cls-2" d="M147.71,19.51h2.23v5.97c0,.85.16,1.48.48,1.9.32.41.85.62,1.6.62s1.28-.21,1.59-.62c.31-.41.47-1.04.47-1.9v-5.97h2.23v5.97c0,.76-.1,1.41-.3,1.95s-.48.99-.85,1.34-.82.61-1.35.77-1.13.25-1.8.25-1.28-.08-1.81-.25-.98-.43-1.35-.78-.65-.8-.84-1.36c-.19-.55-.28-1.21-.28-1.97v-5.93h-.02Z"/>
  <path class="cls-2" d="M159.76,19.51h3.78c.84,0,1.53.09,2.07.27s.97.42,1.28.72.52.62.64.98c.12.36.18.71.18,1.06,0,.65-.12,1.19-.37,1.63-.25.44-.67.81-1.25,1.11l2.17,4.26h-2.4l-1.79-3.76h-2.09v3.76h-2.2v-10.03h-.02ZM163.69,24.03c.35,0,.64-.04.87-.11s.41-.17.55-.3c.13-.13.23-.28.28-.46.05-.18.07-.37.07-.59,0-.18-.03-.35-.09-.51s-.16-.31-.31-.44c-.14-.13-.34-.22-.6-.29-.25-.07-.58-.11-.96-.11h-1.54v2.8h1.73Z"/>
  <path class="cls-2" d="M171.01,19.51h2l4.39,6.57v-6.57h2.17v10.03h-1.99l-4.41-6.52v6.52h-2.17v-10.03h.01Z"/>
  <path class="cls-2" d="M184.79,16.66h2.42l-2.37,2.04h-1.96l1.91-2.04ZM183.24,19.51h2.23v10.03h-2.23v-10.03Z"/>
  <path class="cls-2" d="M193.96,19.51h3.99c1.63,0,2.9.42,3.82,1.25.91.83,1.37,2.07,1.37,3.71,0,.83-.13,1.56-.38,2.19-.25.63-.62,1.16-1.1,1.59-.48.43-1.06.75-1.75.97s-1.46.32-2.33.32h-3.61v-10.03h0ZM197.62,27.76c.58,0,1.07-.08,1.48-.23.41-.15.74-.38.99-.67s.44-.63.56-1.03.18-.84.18-1.34-.05-.93-.16-1.33-.27-.73-.5-1-.53-.48-.89-.63-.81-.22-1.34-.22h-1.76v6.46h1.44Z"/>
  <path class="cls-2" d="M206.26,19.51h2.23v5.97c0,.85.16,1.48.48,1.9.32.41.85.62,1.6.62s1.28-.21,1.59-.62c.31-.41.47-1.04.47-1.9v-5.97h2.23v5.97c0,.76-.1,1.41-.3,1.95s-.48.99-.85,1.34-.82.61-1.35.77-1.13.25-1.8.25-1.28-.08-1.81-.25-.98-.43-1.35-.78-.65-.8-.84-1.36c-.19-.55-.28-1.21-.28-1.97v-5.93h-.02ZM208.73,17.52c0-.28.05-.53.14-.74s.22-.38.39-.52c.16-.14.36-.24.58-.31.22-.07.45-.11.69-.11s.47.04.69.11c.22.07.41.17.57.31.16.14.3.31.4.52s.15.46.15.74-.05.52-.15.73c-.1.21-.23.38-.4.51-.16.14-.36.24-.57.3-.22.07-.45.1-.69.1s-.47-.03-.69-.1-.41-.17-.58-.3c-.16-.14-.29-.31-.39-.51-.1-.21-.14-.45-.14-.73ZM210.53,18.18c.46,0,.69-.22.69-.66,0-.24-.06-.42-.18-.53s-.29-.16-.51-.16-.37.05-.49.16c-.12.11-.18.28-.18.53s.06.4.18.51c.12.1.28.15.49.15h0Z"/>
  <path class="cls-2" d="M218.31,19.51h2.67l2.66,7.49,2.73-7.49h2.6v10.03h-2.05v-6.69l-2.43,6.69h-1.73l-2.45-6.67v6.67h-2v-10.03h0Z"/>
  <path class="cls-2" d="M105.54,35.32h3.39l3.37,9.66,3.46-9.66h3.29v12.94h-2.59v-8.63l-3.08,8.63h-2.2l-3.1-8.61v8.61h-2.54s0-12.94,0-12.94Z"/>
  <path class="cls-2" d="M126.93,35.32h2.82v12.94h-2.82v-12.94Z"/>
  <path class="cls-2" d="M137.62,35.32h2.82v10.62h6.4l-.3,2.32h-8.91v-12.94h0Z"/>
  <path class="cls-2" d="M159.04,48.6c-1.01,0-1.91-.16-2.71-.47s-1.47-.77-2.03-1.36c-.55-.59-.98-1.31-1.28-2.14s-.44-1.78-.44-2.83.15-1.99.44-2.83.73-1.55,1.29-2.14,1.24-1.05,2.03-1.36,1.69-.47,2.69-.47,1.91.16,2.71.47c.79.31,1.47.77,2.02,1.36s.97,1.3,1.26,2.14c.29.83.44,1.78.44,2.83s-.14,1.99-.43,2.83-.7,1.55-1.25,2.14-1.22,1.05-2.02,1.36c-.79.31-1.7.47-2.73.47h0ZM159.03,46.27c1.19,0,2.07-.39,2.65-1.16.58-.77.87-1.88.87-3.32s-.29-2.53-.87-3.31-1.46-1.17-2.65-1.17-2.07.39-2.65,1.17c-.58.78-.87,1.88-.87,3.31s.29,2.54.87,3.32c.58.77,1.46,1.16,2.65,1.16Z"/>
  <path class="cls-2" d="M170.95,35.32h3.14l3.27,9.16,3.37-9.16h3.03l-5.07,12.94h-2.67l-5.07-12.94h0Z"/>
  <path class="cls-2" d="M190.44,35.32h2.82v12.94h-2.82v-12.94Z"/>
  <path class="cls-2" d="M212.68,43.79c-.06.69-.23,1.33-.5,1.91s-.64,1.09-1.12,1.52c-.47.43-1.05.76-1.74,1.01-.69.24-1.49.36-2.39.36-1.02,0-1.92-.16-2.7-.49s-1.43-.79-1.95-1.38-.92-1.31-1.18-2.15-.4-1.77-.4-2.78.14-1.99.43-2.83c.29-.83.71-1.55,1.25-2.14s1.2-1.05,1.97-1.36,1.64-.47,2.61-.47c.86,0,1.6.1,2.24.31.64.21,1.17.5,1.61.89.43.39.79.85,1.05,1.4.26.54.46,1.15.59,1.83l-2.8.34c-.14-.76-.41-1.36-.8-1.8-.4-.43-1.03-.65-1.88-.65-1.09,0-1.91.39-2.47,1.17s-.84,1.88-.84,3.31.3,2.54.9,3.32c.6.77,1.4,1.16,2.41,1.16.87,0,1.51-.21,1.92-.64s.67-1.04.77-1.84h3.03-.01Z"/>
  <path class="cls-2" d="M219.73,35.32h9.22v2.3h-6.4v2.83h6.02v2.32h-6.02v3.19h6.79l-.28,2.3h-9.33s0-12.94,0-12.94Z"/>
</svg>