<svg width="224" height="70" fill="none" xmlns="http://www.w3.org/2000/svg"><g clip-path="url(#a)"><path d="M48.447 15.816h-9.022s-6.295-.162-6.686-4.212c-2.005 1.232-1.604 2.404-3.007 1.839-1.404-.566-2.767-2.96-2.005-6.686-2.005.202-3.82 3.272-4.591 2.02A13.054 13.054 0 0 1 21.893 0c-6.436 5.221-5.012 15.907-5.012 15.907l-11.568-.091A5.288 5.288 0 0 0 1.545 17.4 5.398 5.398 0 0 0 0 21.209v43.428a5.408 5.408 0 0 0 1.548 3.805 5.299 5.299 0 0 0 3.765 1.588h43.104a5.327 5.327 0 0 0 3.801-1.572c.5-.5.897-1.096 1.169-1.751a5.44 5.44 0 0 0 .413-2.07V21.21a5.424 5.424 0 0 0-1.568-3.817 5.343 5.343 0 0 0-3.785-1.586" fill="#CD1719"/><path d="M21.13 29.733c.003.423-.12.837-.353 1.19a2.119 2.119 0 0 1-.952.789 2.1 2.1 0 0 1-2.312-.47 2.136 2.136 0 0 1-.444-2.333c.165-.39.44-.72.793-.952a2.102 2.102 0 0 1 1.184-.345 2.1 2.1 0 0 1 1.505.614 2.132 2.132 0 0 1 .63 1.507M25.502 36.722l-.211 10.17a1.321 1.321 0 0 0 .4 1.01 1.344 1.344 0 0 0 1.003.434h3.218c.37-.002.725-.152.986-.417a1.42 1.42 0 0 0 .407-.996 1.42 1.42 0 0 0-.4-1 1.398 1.398 0 0 0-.983-.425h-1.804c.05-2.14.21-8.746.21-8.756 0-.377-.149-.74-.414-1.007a1.408 1.408 0 0 0-1.998 0 1.43 1.43 0 0 0-.415 1.007M14.124 53.124a1.418 1.418 0 0 0 .33 2.02c.412.282 10.125 6.938 25.502.848a1.44 1.44 0 0 0 .719-.778 1.454 1.454 0 0 0-.004-1.062 1.44 1.44 0 0 0-.725-.773 1.423 1.423 0 0 0-1.052-.063c-13.864 5.514-22.444-.283-22.785-.526a1.428 1.428 0 0 0-2.005.374M36.658 29.733a2.134 2.134 0 0 1-.56 1.593 2.105 2.105 0 0 1-1.54.674 2.092 2.092 0 0 1-1.539-.674 2.124 2.124 0 0 1-.56-1.593 2.136 2.136 0 0 1 .56-1.593 2.106 2.106 0 0 1 1.54-.674 2.092 2.092 0 0 1 1.538.674 2.123 2.123 0 0 1 .561 1.593z" fill="#fff"/><path d="M75.392 30.945v20.896c0 1.505.812 2.484 2.085 2.484s2.115-.949 2.115-2.484v-4.272l1.604-1.606 4.871 7.14c.18.352.446.65.775.864.33.215.709.338 1.1.358a2.137 2.137 0 0 0 1.431-.602c.386-.374.62-.88.654-1.417a3.044 3.044 0 0 0-.551-1.556l-5.443-7.786c.52-.566 3.929-4.04 3.929-4.04a2.872 2.872 0 0 0 1.103-2.02 1.845 1.845 0 0 0-.538-1.273 1.817 1.817 0 0 0-1.267-.535 3.091 3.091 0 0 0-2.005 1.09s-4.28 4.576-5.653 6.06V30.945c0-1.515-.802-2.464-2.115-2.464-1.313 0-2.085.96-2.085 2.464M105.013 36.722l-3.458 10.746c-.812-2.293-3.87-10.776-3.87-10.776a2.154 2.154 0 0 0-.74-1.232 2.125 2.125 0 0 0-1.344-.485c-.547 0-1.074.209-1.475.583a2.198 2.198 0 0 0-.69 1.437l.32 1.313 5.844 15.33c-.812 2.253-1.363 2.697-2.526 2.697l-.792-.06h-.752a1.613 1.613 0 0 0-1.205.56 1.641 1.641 0 0 0-.389 1.278c0 .646.291 2.1 3.008 2.1a7.436 7.436 0 0 0 3.137-.636c1.624-.838 2.156-1.929 3.539-5.898l5.453-15.523.211-1.121a2.1 2.1 0 0 0-.64-1.44 2.066 2.066 0 0 0-1.456-.58c-.503.015-.987.2-1.372.527a2.258 2.258 0 0 0-.753 1.27M115.047 32.066v3.11h-1.002c-1.313 0-2.125.708-2.125 1.849s.812 1.858 2.125 1.858h1.002v10.019c0 2.02.341 3.141 1.233 4.04.892.899 1.935 1.192 3.85 1.192h.791a1.837 1.837 0 0 0 1.851-1.108 1.897 1.897 0 0 0-.398-2.09 1.87 1.87 0 0 0-1.332-.55c-1.514 0-1.805-.292-1.805-1.726v-9.777h1.203c1.324 0 2.156-.697 2.156-1.858s-.873-1.848-2.156-1.848h-1.152v-3.11c0-1.516-.822-2.455-2.126-2.455-1.303 0-2.085.94-2.085 2.454M134.324 34.793a8.096 8.096 0 0 0-5.904 2.02 5.29 5.29 0 0 0-1.494 3.323c0 1.08.802 1.767 2.095 1.767.436.065.88-.032 1.249-.274.37-.242.638-.611.756-1.039.561-1.707 1.253-2.171 3.238-2.171 1.373 0 3.007.424 3.007 2.414 0 .464-.05.555-.06.565-.887.404-1.83.67-2.797.788-4.33.868-4.651.96-5.704 1.555a5.035 5.035 0 0 0-1.897 1.943 5.077 5.077 0 0 0-.619 2.652c0 3.576 2.586 6.06 6.295 6.06a7.453 7.453 0 0 0 4.942-1.848 1.812 1.812 0 0 0 1.191 1.676c.229.082.472.117.714.102 1.223 0 2.005-.89 2.005-2.313V41.216c0-4.242-2.356-6.423-7.017-6.423zm2.446 13.685a4.098 4.098 0 0 1-1.538 1.647 4.046 4.046 0 0 1-2.171.575c-.943 0-2.526-.273-2.526-2.172 0-1.353.471-2.02 3.288-2.646 1.884-.373 2.806-.596 3.498-.808a8.22 8.22 0 0 1-.551 3.404zM151.074 36.995a2.023 2.023 0 0 0-1.226-1.912 1.99 1.99 0 0 0-.779-.159c-1.243 0-2.004.91-2.004 2.374V51.84c0 1.505.822 2.484 2.085 2.484a2.171 2.171 0 0 0 1.613-.764c.201-.234.35-.508.438-.805a2.23 2.23 0 0 0 .074-.915v-5.626c0-3.19.17-4.18.882-5.302a4.777 4.777 0 0 1 1.459-1.371 4.737 4.737 0 0 1 1.889-.649l1.002-.161c.439-.202.791-.556.991-.997.201-.442.237-.941.102-1.407a2.019 2.019 0 0 0-.838-1.131 1.991 1.991 0 0 0-1.367-.303 4.684 4.684 0 0 0-2.43.447 4.73 4.73 0 0 0-1.871 1.623M172.265 36.732s-2.716 8.383-3.458 10.685c-.812-2.292-3.869-10.776-3.869-10.776a2.177 2.177 0 0 0-.817-1.264 2.146 2.146 0 0 0-2.801.2c-.367.365-.591.85-.633 1.367l.321 1.313 5.844 15.331c-.802 2.252-1.383 2.697-2.526 2.697l-.782-.06h-.772a1.61 1.61 0 0 0-1.192.566 1.647 1.647 0 0 0-.381 1.271c0 .647.28 2.101 2.947 2.101a7.467 7.467 0 0 0 3.137-.636c1.624-.839 2.155-1.93 3.539-5.898l5.453-15.523.21-1.121a2.094 2.094 0 0 0-.639-1.44 2.066 2.066 0 0 0-1.456-.58c-.505.013-.991.2-1.377.528s-.65.78-.748 1.28M178.921 51.81c-.005.66.249 1.296.708 1.767.458.471 1.083.74 1.738.748a2.498 2.498 0 0 0 1.756-.742c.465-.471.728-1.108.73-1.772 0-.66-.26-1.291-.722-1.757a2.454 2.454 0 0 0-3.487 0 2.493 2.493 0 0 0-.723 1.757zM190.71 37.5a10.207 10.207 0 0 0-2.426 7.07 11.346 11.346 0 0 0 2.476 7.422 8.09 8.09 0 0 0 2.876 1.923 8.043 8.043 0 0 0 3.409.542 8.15 8.15 0 0 0 3.709-.675 8.208 8.208 0 0 0 3.017-2.274 5.474 5.474 0 0 0 1.353-3.252 2.031 2.031 0 0 0-.615-1.458 2.002 2.002 0 0 0-1.47-.562c-1.182 0-1.664.767-2.004 1.646a4.042 4.042 0 0 1-1.532 2.09 3.988 3.988 0 0 1-2.478.718c-2.757 0-4.471-2.313-4.471-6.06 0-3.747 1.694-6.12 4.541-6.12a3.367 3.367 0 0 1 2.111.555 3.405 3.405 0 0 1 1.337 1.737c.452 1.01 1.003 1.596 2.075 1.596a2.127 2.127 0 0 0 1.486-.616c.397-.392.627-.925.64-1.485a5.123 5.123 0 0 0-1.253-2.767 7.926 7.926 0 0 0-2.857-2.1 7.867 7.867 0 0 0-3.479-.637 8.438 8.438 0 0 0-3.528.648 8.486 8.486 0 0 0-2.947 2.059M211.51 35.177c-1.293 0-2.155.717-2.155 1.848 0 1.131.842 1.858 2.155 1.858h6.586l-8.33 10.1c-1.223 1.404-1.394 1.656-1.394 2.626v.434c0 1.252.923 2.02 2.446 2.02h11.077a1.85 1.85 0 0 0 1.494-.451 1.88 1.88 0 0 0 .631-1.438c0-1.13-.812-1.848-2.125-1.848h-8.019c1.223-1.515 8.891-10.938 8.891-10.938a2.888 2.888 0 0 0 .922-2.02v-.434c0-.848-.421-1.808-2.416-1.808l-9.763.05z" fill="#CD1719"/></g><defs><clipPath id="a"><path fill="#fff" d="M0 0h224v70H0z"/></clipPath></defs></svg>