<?xml version="1.0" encoding="UTF-8" standalone="no"?>
<!DOCTYPE svg PUBLIC "-//W3C//DTD SVG 1.1//EN" "http://www.w3.org/Graphics/SVG/1.1/DTD/svg11.dtd">
<svg width="100%" height="100%" viewBox="0 0 111 61" version="1.1" xmlns="http://www.w3.org/2000/svg" xmlns:xlink="http://www.w3.org/1999/xlink" xml:space="preserve" xmlns:serif="http://www.serif.com/" style="fill-rule:evenodd;clip-rule:evenodd;stroke-linejoin:round;stroke-miterlimit:2;">
    <g transform="matrix(1,0,0,1,0,-20.3104)">
        <path d="M43.921,25.241L43.921,51.003L55.782,51.003L55.782,56.019L38.395,56.019L38.395,25.241L43.921,25.241Z" style="fill:white;fill-rule:nonzero;"/>
    </g>
    <g transform="matrix(1,0,0,1,0,-20.3104)">
        <path d="M78.013,25.241L78.013,30.257L64.495,30.257L64.495,37.951L77.078,37.951L77.078,42.968L64.495,42.968L64.495,51.003L78.013,51.003L78.013,56.019L58.968,56.019L58.968,25.241L78.013,25.241Z" style="fill:white;fill-rule:nonzero;"/>
    </g>
    <g transform="matrix(1,0,0,1,0,-20.3108)">
        <path d="M88.699,51.004L94.777,51.004C100.049,51.004 104.555,46.88 104.555,40.631C104.555,34.382 100.049,30.216 94.777,30.216L88.699,30.216L88.699,51.004ZM95.075,25.242C102.982,25.242 110.082,31.108 110.082,40.631C110.082,50.111 102.982,56.02 95.075,56.02L83.172,56.02L83.172,25.242L95.075,25.242Z" style="fill:white;fill-rule:nonzero;"/>
    </g>
    <g transform="matrix(1,0,0,1,0,47.3891)">
        <rect x="0.392" y="5.683" width="6.285" height="2.196" style="fill:white;"/>
    </g>
    <g transform="matrix(1,0,0,1,0,44.8495)">
        <path d="M19.086,0.259L19.086,2.798L12.241,2.798L12.241,6.694L18.613,6.694L18.613,9.234L12.241,9.234L12.241,13.303L19.086,13.303L19.086,15.842L9.443,15.842L9.443,0.259L19.086,0.259Z" style="fill:white;fill-rule:nonzero;"/>
    </g>
    <g transform="matrix(1,0,0,1,0,44.8495)">
        <path d="M20.773,0.259L24.109,0.259L27.445,5.489L30.782,0.259L34.118,0.259L29.297,7.641L34.721,15.842L31.385,15.842L27.445,9.794L23.506,15.842L20.171,15.842L25.594,7.641L20.773,0.259Z" style="fill:white;fill-rule:nonzero;"/>
    </g>
    <g transform="matrix(1,0,0,1,0,44.8491)">
        <path d="M44.507,5.468C44.507,3.939 43.474,2.799 41.602,2.799L38.867,2.799L38.867,8.18L41.602,8.18C43.474,8.18 44.507,7.039 44.507,5.468M41.945,0.259C45.131,0.259 47.392,2.282 47.392,5.468C47.392,8.675 45.131,10.72 41.945,10.72L38.867,10.72L38.867,15.843L36.069,15.843L36.069,0.259L41.945,0.259Z" style="fill:white;fill-rule:nonzero;"/>
    </g>
    <g transform="matrix(1,0,0,1,0,44.8495)">
        <path d="M58.867,0.259L58.867,2.798L52.022,2.798L52.022,6.694L58.394,6.694L58.394,9.234L52.022,9.234L52.022,13.303L58.867,13.303L58.867,15.842L49.224,15.842L49.224,0.259L58.867,0.259Z" style="fill:white;fill-rule:nonzero;"/>
    </g>
    <g transform="matrix(1,0,0,1,0,44.8493)">
        <path d="M64.277,6.91L67.162,6.91C68.863,6.91 69.982,6.199 69.982,4.757C69.982,3.315 68.863,2.798 67.162,2.798L64.277,2.798L64.277,6.91ZM70.563,15.843L66.322,9.364L64.277,9.342L64.277,15.843L61.479,15.843L61.479,0.259L67.506,0.259C70.498,0.259 72.866,1.679 72.866,4.757C72.866,7.125 71.273,8.567 69.357,9.105L73.813,15.843L70.563,15.843Z" style="fill:white;fill-rule:nonzero;"/>
    </g>
    <g transform="matrix(1,0,0,1,0,44.8497)">
        <path d="M74.077,2.798L74.077,0.258L84.925,0.258L84.925,2.798L80.9,2.798L80.9,15.842L78.102,15.842L78.102,2.798L74.077,2.798Z" style="fill:white;fill-rule:nonzero;"/>
    </g>
    <g transform="matrix(0,1,1,0,84.6889,-27.5489)">
        <path d="M86.605,-0.011C85.571,-0.011 84.689,0.872 84.689,1.905C84.689,2.917 85.571,3.821 86.605,3.799C87.616,3.778 88.499,2.917 88.499,1.905C88.499,0.872 87.616,-0.011 86.605,-0.011" style="fill:white;fill-rule:nonzero;"/>
    </g>
    <g transform="matrix(1,0,0,1,0,49.37)">
        <path d="M95.35,9.04C96.836,9.04 97.826,8.459 98.601,7.576L100.043,9.708C99.225,10.59 97.697,11.58 95.329,11.58C91.82,11.58 89.604,9.061 89.604,5.79C89.604,2.518 91.82,0 95.329,0C97.697,0 99.225,0.99 100.043,1.873L98.601,4.004C97.826,3.121 96.836,2.54 95.35,2.54C93.564,2.54 92.337,3.831 92.337,5.79C92.337,7.749 93.564,9.04 95.35,9.04" style="fill:white;fill-rule:nonzero;"/>
    </g>
    <g transform="matrix(1,0,0,1,0,49.3482)">
        <path d="M110.082,9.148L110.082,11.344L100.697,11.344L105.733,2.454L101.105,2.454L101.105,0.258L110.06,0.258L104.958,9.148L110.082,9.148Z" style="fill:white;fill-rule:nonzero;"/>
    </g>
    <g transform="matrix(-0.137562,-0.990493,-0.990493,0.137562,58.4501,30.4573)">
        <path d="M14.77,23.946C16.693,33.409 18.614,42.869 20.535,52.329C21.411,56.648 15.07,57.733 14.77,53.337C14.108,43.63 13.445,33.923 12.782,24.215L14.77,23.946Z" style="fill:rgb(70,255,136);"/>
    </g>
    <g transform="matrix(-0.0628919,-0.99802,-0.99802,0.0628919,52.9893,43.1983)">
        <path d="M20.553,19.019C18.651,26.948 16.748,34.881 14.847,42.81C13.621,47.927 20.269,48.205 20.553,44.714C21.256,36.107 21.957,27.501 22.657,18.893L20.553,19.019Z" style="fill:rgb(255,221,87);"/>
    </g>
    <g transform="matrix(-0.30392,-0.952697,-0.952697,0.30392,53.667,44.9043)">
        <path d="M22.985,14.646C21.074,20.842 19.163,27.04 17.252,33.236C15.567,38.699 22.485,39.486 22.985,35.264C23.829,28.124 24.67,20.987 25.512,13.851L22.985,14.646Z" style="fill:rgb(248,91,119);"/>
    </g>
    <g transform="matrix(0.0628919,-0.99802,-0.99802,-0.0628919,64.8146,34.1956)">
        <path d="M15.767,33.157C17.669,41.086 19.572,49.018 21.473,56.948C22.7,62.064 16.052,62.342 15.767,58.851C15.065,50.244 14.364,41.638 13.664,33.03L15.767,33.157Z" style="fill:rgb(13,238,255);"/>
    </g>
    <g transform="matrix(0.30392,-0.952697,-0.952697,-0.30392,66.0589,43.3304)">
        <path d="M18.959,41.034C20.869,47.23 22.78,53.427 24.691,59.623C26.376,65.086 19.458,65.873 18.959,61.651C18.114,54.512 17.273,47.374 16.431,40.238L18.959,41.034Z" style="fill:rgb(207,118,250);"/>
    </g>
</svg>
