<?xml version="1.0" encoding="utf-8"?>
<!-- Generator: Adobe Illustrator 15.0.0, SVG Export Plug-In . SVG Version: 6.00 Build 0)  -->
<!DOCTYPE svg PUBLIC "-//W3C//DTD SVG 1.1//EN" "http://www.w3.org/Graphics/SVG/1.1/DTD/svg11.dtd">
<svg version="1.1" id="Layer_1" xmlns="http://www.w3.org/2000/svg" xmlns:xlink="http://www.w3.org/1999/xlink" x="0px" y="0px"
	 width="238.541px" height="94.8px" viewBox="0 0 238.541 94.8" enable-background="new 0 0 238.541 94.8" xml:space="preserve">
<g>
	<path fill="#FFFFFF" d="M4.754,70.395c0.694,4.586,5.186,17.58,18.461,16.877c7.574,13.395,27.517,5.623,32.584,1.689
		c-3.319-6.039-8.554-19.26-8.952-29.752c-0.397-10.48,5.028-25.389,5.925-26.764c0.384,0.238,2.042,1.229,2.704,0.934
		c0.37-0.742-0.149-1.133-0.374-1.492c-0.265-0.426-0.633-0.859-0.933-1.398c-0.625-1.129-1.229-2.906-1.491-4.568
		c-0.594-3.783,0.516-6.512,1.119-9.695c0.226-1.189,0.85-3.48,0.187-3.822c-0.667-0.346-1.103,0.771-1.306,1.119
		c-0.922,1.572-2.533,3.596-3.542,4.566c-2.094,2.02-4.019,3.635-6.154,4.662c-0.248,0.119-1.872,0.404-1.771,1.211
		c0.104,0.836,1.909,0.545,2.331,1.119c-0.05,0.547,0.063,1.367,0,2.146c-0.219,2.709-0.698,6.172-1.679,8.951
		c-0.467,1.324-1.026,2.367-1.771,3.543c-1.125,1.773-3.394,4.016-4.941,2.236c-1.657-2.607,0.302-10.303,1.958-14.545
		c0.763-1.953,1.43-4.004,2.331-5.688c0.305-0.57,0.601-1.248,1.119-1.586c0.797,0.135,1.11,0.754,2.144,0.652
		c0.431-0.213-0.307-3.57,1.426-7.836c2.21-5.439,4.978-7.844,4.448-8.666C47.406,4.203,31.15,4.047,26.014,0
		c-0.338,3.541-9.856,17.98-11.562,19.859c-0.33,0.363-0.8,0.764-0.746,1.305c0.476,0.943,5.468-1.02,6.527-1.213
		c0.171,2.148,0.199,4.586,0.093,6.994c-0.216,4.922-0.709,11.279-1.771,15.477c-0.195,0.771-0.251,1.59-0.466,2.053
		c-0.318,0.68-1.403,1.623-2.145,1.771c-0.916,0.182-1.702-0.344-2.051-0.746c-0.37-0.428-0.492-0.83-0.746-1.398
		c-1.153-2.59-1.516-5.822-1.583-8.771c0.552-0.352,0.794-0.484,1.285-0.719c-0.055-0.178-0.09-1.369-0.224-2.002
		c-0.315,0.158-0.801,0.438-1.093,0.619c0.012-0.908,0.073-2.207,0.123-3.207c0.046-0.918,0.105-3.771,0.148-4.367
		c-1.003,0.129-2.058,0.797-2.946,1.068c-0.071,0.834,0.167,2.758,0.07,3.691c-0.329,0.096-0.812,0.447-1.057,0.518
		c-0.296-1.285-0.437-2.121-0.68-3.385c-0.874,0.471-2.46,1.369-2.78,1.783c0.174,1.195,0.481,2.611,0.724,3.461
		c-0.254,0.271-0.51,0.293-0.845,0.494c-0.509-1.416-0.818-2.041-1.122-2.824C1.856,30.801,0.005,32.348,0,32.818
		c0.622,0.855,2.529,4.605,2.797,5.689c-0.375,0.336-0.589,0.549-1.184,1.033c0.23,0.486,0.583,1.324,0.813,1.822
		c0.413-0.4,0.801-0.668,1.129-0.959c0.916,3.572,1.741,7.441,1.573,11.436c-0.057,1.338,0.015,2.748-0.187,4.01
		C4.691,57.41,4.258,66.689,4.754,70.395z M26.819,76.922c0.57-1.93,3.192-5.426,6.558-3.076c1.599,1.781,1.62,5.484-1.29,7.365
		c-1.2,0.775-3.155,0.746-4.771,1.119C26.836,80.482,26.308,78.654,26.819,76.922z M45.584,35.379
		c0.476-2.385,1.309-4.926,1.966-7.129c0.86,0.598,1.393,1.156,2.145,1.68c-0.995,1.924-1.948,4.139-2.983,6.061
		C46.34,35.83,45.811,35.563,45.584,35.379z M31.979,18.367c1.427-0.061,2.582,0.152,3.636,0.467
		c-0.349,1.111-0.525,2.396-0.933,3.449c-1.143,0.193-2.374,0.299-3.542,0.467C31.395,21.266,31.781,19.91,31.979,18.367z
		 M25.079,18.74c1.165-0.141,2.288-0.322,3.636-0.279c-0.243,1.717-0.729,3.189-0.933,4.941c-1.138,0.354-2.164,0.818-3.356,1.119
		C24.522,22.471,24.799,20.605,25.079,18.74z M13.337,60.166c0.215,1.166,0.164,3.885,0.574,6.01
		c0.534-0.105,3.554-0.98,4.251-1.283c-0.042-2.609-0.381-4.795-0.194-6.734c1.003-0.582,2.687-1.266,3.856-1.619
		c0.084,2.535,0.093,4.113,0.271,7.33C23.374,63.5,26.126,62.82,27,62.496c0-1.811-0.052-5.555,0.145-7.477
		c1.241-0.477,2.744-0.744,4.382-0.941c0.07,3.072,0.107,4.521,0.038,7.447c0.874-0.162,3.359-0.574,5.309-0.713
		c0-2.752-0.017-5.609-0.017-7.607c1.279-0.188,4.144-0.18,5.377-0.244c0.192,15.139,2.96,24.752,6.06,32.26
		c-1.319,2.174-13.168,7.189-17.062,2.053c1.1-0.219,6.938-1.563,8.578-7.926c0.819-3.178-1.058-9.695-6.153-11.563
		c-7.013-1.922-9.748,2.51-10.639,4.068c-1.554,2.719-2.268,7.289-1.424,10.164c-8.613-1.904-11.362-11.789-11.993-14.699
		c-0.314-1.451-0.444-3.256-0.466-5.221C10.32,61.23,12.044,60.65,13.337,60.166z"/>
	<g>
		<path fill="#FFFFFF" d="M188.16,84.635c1.301,0.488,6.168-0.625,7.242-0.072c0.168,1.609-0.01,2.469-0.102,3.953
			c-1.396,0.805-11.021,1.104-11.971,0.412c0.811-5.521,1.414-29.018,1.098-30.582c0.684-0.58,5.283-0.592,5.711-0.459
			C187.869,73.684,188.13,79.943,188.16,84.635z"/>
		<path fill="#FFFFFF" d="M172.652,91.102c-3.703,0.092-6.605-3.92-7.602-6.787c-1.443-4.148-1.939-12.283-1.736-12.793
			c0.916-0.777,3.508-3.461,4.561-4.191c-0.01,1.125,0.074,16.906,3.816,16.643c4.445-0.422,1.852-17.094,0.191-19.076
			c1.115-1.359,2.973-2.889,4.23-3.932C179.705,77.879,179.658,90.777,172.652,91.102z"/>
		<path fill="#FFFFFF" d="M162.91,62.625c-1.045,1.34-6.229,6.281-8.709,8.617c1.934,2.092,7.516,16.373,6.977,16.959
			c-1.354,0.449-4.676-0.006-6.129-1.053c-0.02-4.842-1.635-9.582-3.887-13.584c-1.023,3.529-2.256,9.459-3.857,12.596
			c-0.561,0.061-1.402-0.15-2.875-0.711c0.211-1.793,5.695-20.33,3.963-29.596c2.102,0.117,4.316,0.232,6.502,0.428
			c-0.76,3.59-1.625,7.6-2.404,11.201c1.027-0.367,5.738-8.645,7.457-10.803C160.402,57.371,162.046,60.805,162.91,62.625z"/>
		<path fill="#FFFFFF" d="M100.966,60.189c2.485,7.078-1.747,19.635-3.107,21.893c-0.885,1.469-2.147,3.539-4.268,2.252
			c3.142-5.834,3.287-20.361,1.541-24.293C96.642,60.287,100.563,60.162,100.966,60.189z"/>
		<path fill="#FFFFFF" d="M66.678,79.932c4.488-0.109,7.228-8.914,8.164-13.07c0.472,0.727,2.764,5.479,3.696,6.256
			c1.33-2.006,3.355-5.141,4.801-7.063c0.055,1.992-0.318,14.93,2.179,17.426c2.466,2.465,5.998,1.209,5.773-2.121
			c-1.132,0.096-2.11,0.031-3.05-0.82c-1.429-1.297-1.621-19.545,0.043-27.879c-3.312,3.4-8.301,10.275-9.387,12.037
			c-1.231-2.344-4.926-10.074-5.919-12.211c-1.303,1.311-1.498,22.244-7.411,22.422c-6.986-0.471-8.738-19.246-9.016-20.623
			c-1.39-0.012-4.656-0.838-4.656-0.838C51.98,63.393,54.931,80.215,66.678,79.932z"/>
		<path fill="#FFFFFF" d="M203.007,58.014c0.121,2.717,2.34,17.896-2.33,19.803c-2.383,0.852-0.998-12.598-0.854-14.953
			c-0.766-0.102-2.791-0.146-3.445-0.219c-0.709,2.729-0.801,5.918-0.867,8.723c-0.059,2.486,0.424,7.129,2.355,9.287
			c1.717,1.916,3.621,1.496,5.361-0.408c1.521-1.664,3.398-4.797,3.732-11.277c0.092-1.76-0.453-12.139-0.453-12.139
			C205.068,57.33,203.929,57.598,203.007,58.014z"/>
		<path fill="#FFFFFF" d="M238.541,60.443l-5.709-0.428c-0.158,4.295-1.373,16.32-3.234,18.512
			c-4.004,3.938-5.23-14.709-6.225-19.664c-1.828,3.213-3.695,7.883-5.705,11.256c-1.598-3.332-4.293-11.328-4.738-11.24
			c-2.229,12.775-0.381,23.713-11.061,27.033c0.164,0.826,0.254,1.826,0.629,2.828c8.816-0.139,11.193-15.92,11.732-17.535
			c0.637,1.482,2.965,5.695,3.668,7.246c0.984-2.289,2.354-6.422,3.545-8.498c0.086,1.811,2.781,15.672,9.168,14.352
			C234.056,83.594,237.449,70.145,238.541,60.443z"/>
		<path fill="#FFFFFF" d="M137.15,56.596c-0.537-0.184-5.41-0.523-6.861-0.801c1.152,4.404,0.488,16.277-3.004,23.752
			c-0.465,0.992-1.762,3.133-3.396,3.57l-0.002-0.004c-2.496-0.332-4.809-2.877-6.313-5.85c-0.871-1.725-3.134-6.021-4.069-7.941
			c2.179-0.43,6.579-2.4,5.486-6.172c-2.216-7.662-8.724-5.707-13.017-4.904c0.724,2.498,1.855,21.254-2.781,25.908
			c0.624,0.607,4.046,1.779,5.882,0.939c0.9-2.281,1.433-13.324,1.605-13.949c3.218,4.551,6.713,12.777,10.97,14.551
			c0.428,0.166,2.23,0.891,2.738,0.783c0.055,0.006,0.111,0.02,0.166,0.023l-0.012-0.059c0.645-0.152,1.27-0.4,1.662-0.783
			c3.986-4.221,5.635-11.818,6.801-14.697c1.123-0.184,2.033-0.061,3.113-0.297c1.645,4.787,7.633,15.137,9.121,15.219
			c0.445-0.797,0.967-1.367,1.301-2.438C139.029,74.201,135.828,59.965,137.15,56.596z M109.896,66.148
			c-0.299-0.422-0.55-3.992-0.7-5.328c1.312-0.762,5.273-0.205,6.22,1.713C116.604,65.775,111.355,66.527,109.896,66.148z
			 M133.287,67.137c-0.074-1.061,0.203-5.104,0.459-6.34c0.49,1.111,1.199,4.75,1.725,6.395
			C135.076,67.168,133.798,67.303,133.287,67.137z"/>
	</g>
</g>
</svg>
