<?xml version="1.0" encoding="utf-8"?>
<!-- Generator: Adobe Illustrator 27.0.1, SVG Export Plug-In . SVG Version: 6.00 Build 0)  -->
<svg version="1.1" id="Vrstva_1" xmlns="http://www.w3.org/2000/svg" xmlns:xlink="http://www.w3.org/1999/xlink" x="0px" y="0px"
	 viewBox="0 0 133.2 240.9" style="enable-background:new 0 0 133.2 240.9;" xml:space="preserve">
<style type="text/css">
	.st0{fill:#FFFFFF;}
</style>
<g>
	<g>
		<g>
			<path class="st0" d="M34.4,183.8h-2.6l-5.9-6.3v6.3h-1.9V169H26v6.4l4.9-6.4h2.4l-5.6,7.4L34.4,183.8z"/>
			<path class="st0" d="M42.2,173.9l-0.3,1.8c-0.5-0.3-1.1-0.3-1.4-0.3c-2,0-2.8,2.2-2.8,4.8v3.7h-1.9v-10h1.9v2.3
				c0.5-1.8,1.5-2.5,2.8-2.5C41.2,173.5,41.9,173.7,42.2,173.9z"/>
			<path class="st0" d="M52.9,183.8h-2.5l-4.6-4.9v4.9H44v-15.4h1.8v9l3.4-3.5h2.6l-4.2,4.3L52.9,183.8z"/>
			<path class="st0" d="M53.1,178.8c0-3.2,2.4-5.2,5.2-5.2c2.8,0,5.2,2.1,5.2,5.2c0,3.2-2.4,5.3-5.2,5.3
				C55.4,184.1,53.1,182,53.1,178.8z M61.6,178.8c0-2.1-1.5-3.5-3.4-3.5c-1.8,0-3.3,1.4-3.3,3.5c0,2.1,1.5,3.5,3.3,3.5
				C60.1,182.3,61.6,180.9,61.6,178.8z"/>
			<path class="st0" d="M75.2,178v5.8h-1.8v-5.7c0-1.7-1-2.7-2.4-2.7c-1.4,0-3,0.8-3,3v5.4H66v-10h1.8v1.5c0.6-1.2,2.2-1.8,3.3-1.8
				C73.6,173.5,75.2,175.2,75.2,178z"/>
			<path class="st0" d="M77.6,178.8c0-3.2,2.4-5.2,5.2-5.2c2.8,0,5.2,2.1,5.2,5.2c0,3.2-2.4,5.3-5.2,5.3
				C79.9,184.1,77.6,182,77.6,178.8z M86.1,178.8c0-2.1-1.5-3.5-3.4-3.5c-1.8,0-3.3,1.4-3.3,3.5c0,2.1,1.5,3.5,3.3,3.5
				C84.6,182.3,86.1,180.9,86.1,178.8z"/>
			<path class="st0" d="M89.7,180.9h1.7c0,0.9,0.8,1.6,2,1.6c1.3,0,2-0.6,2-1.4c0-0.7-0.6-1.1-1.4-1.3l-1.4-0.3
				c-1.7-0.4-2.6-1.3-2.6-2.9c0-1.6,1.4-3,3.4-3c1.7,0,3.4,0.9,3.4,2.9h-1.8c0-0.8-0.8-1.3-1.6-1.3c-1,0-1.6,0.6-1.6,1.4
				c0,0.7,0.6,1.1,1.3,1.2l1.5,0.4c2.1,0.5,2.6,1.8,2.6,2.9c0,1.9-1.8,3-3.8,3C91.6,184.1,89.8,182.9,89.7,180.9z M92.5,172.3
				l-2.3-3.3h1.7l1.6,1.9l1.6-1.9h1.7l-2.4,3.3H92.5z"/>
			<path class="st0" d="M109.1,179.6H101c0.3,1.8,1.6,2.7,3.2,2.7c1.2,0,2.3-0.6,2.9-1.6l1.6,0.6c-0.9,1.7-2.6,2.7-4.5,2.7
				c-2.8,0-5.1-2.1-5.1-5.3s2.3-5.2,5.1-5.2s4.9,2.1,4.9,5.2C109.1,179,109.1,179.3,109.1,179.6z M107.3,178
				c-0.2-1.7-1.4-2.7-3.1-2.7c-1.7,0-2.9,0.9-3.2,2.7H107.3z"/>
		</g>
	</g>
	<rect x="63.6" y="46.8" class="st0" width="6.1" height="23.3"/>
	<polygon class="st0" points="80.8,43.9 72.4,27.6 80.8,27.6 66.6,0 52.5,27.6 60.8,27.6 52.5,43.9 	"/>
	<rect x="63.6" y="189.6" class="st0" width="6.1" height="23.3"/>
	<path class="st0" d="M79.2,228.3c0,7-5.6,12.6-12.5,12.6c-6.9,0-12.5-5.7-12.5-12.6c0-7,5.6-12.7,12.5-12.7
		C73.5,215.6,79.2,221.3,79.2,228.3"/>
	<g>
		<g>
			<path class="st0" d="M111.2,142.4h4.7v14.9h-4.7v-2.5c-0.5,2.1-2.9,2.9-4.2,2.9c-3.9,0-5.8-2.7-5.8-7.2v-8h4.7v7.7
				c0,2.3,1.4,3.2,2.6,3.2c1.2,0,2.8-0.7,2.8-3.2V142.4z M104.5,136.3c0-2.2,1.8-4,4-4c2.2,0,4,1.8,4,4c0,2.2-1.8,3.9-4,3.9
				C106.3,140.3,104.5,138.5,104.5,136.3z M106.5,136.3c0,1.2,0.9,2,2.1,2c1.1,0,2.1-0.8,2.1-2c0-1.2-1-2.1-2.1-2.1
				C107.4,134.2,106.5,135.1,106.5,136.3z"/>
		</g>
		<g>
			<path class="st0" d="M19.1,87.9H24c0,1.4,1.4,2.5,3.1,2.5c1.6,0,2.8-0.8,2.8-2.2c0-0.9-0.5-1.6-2.4-2.3L24.9,85
				c-4.7-1.3-5.7-4.2-5.7-6.3c0-3.9,3.3-6.7,7.6-6.7c4.1,0,7.3,2.5,7.3,6.7h-4.9c0-1.3-0.8-2.4-2.5-2.4c-1.5,0-2.5,1-2.5,2.2
				c0,0.4,0.1,1.4,2.1,2l2.2,0.7c3.1,0.9,6.2,2.5,6.2,6.5c0,4.7-4,6.7-7.9,6.7C22.3,94.6,19.1,91.9,19.1,87.9z"/>
			<path class="st0" d="M45.1,94.2c-4.2,0-6.2-1.4-6.2-6.1V83h-2.6v-3.5h2.6v-3l4.6-1.4v4.4h3V83h-3v4.8c0,1.7,0.8,2,2.2,2h1v4.3
				H45.1z"/>
			<path class="st0" d="M64.4,88.2H53.7c0.4,1.4,1.7,2.3,3.4,2.3c1.4,0,2.8-0.6,3.7-1.5l2.4,3c-1.4,1.6-3.9,2.6-6.4,2.6
				c-4.6,0-7.9-3.2-7.9-7.7c0-4.8,3.7-7.8,7.8-7.8c4.2,0,7.7,3,7.7,7.4C64.5,87,64.5,87.5,64.4,88.2z M59.9,85.5
				c-0.1-1.4-1.3-2.4-3-2.4c-1.4,0-2.7,0.7-3.2,2.4H59.9z"/>
			<path class="st0" d="M79.8,79.5v3.5l-6.6,6.9h6.6v4.3H66.6v-3.4l6.5-7H67v-4.3H79.8z"/>
			<path class="st0" d="M97.9,94.2h-5.6l-4.5-6v6h-4.6V71.5h4.6v12.1l3.1-4.1h5.8L91.2,86L97.9,94.2z"/>
			<path class="st0" d="M113.2,85.4v8.8h-4.9v-1.6c-1.1,1.3-3.3,2-5,2c-2.8,0-5.2-1.8-5.2-4.6c0-3.1,3-4.5,5.9-4.5
				c1.6,0,3.2,0.4,4.3,0.9v-0.7c0-1.5-1.2-2.6-3-2.6c-1.4,0-2.9,0.5-3.7,1.3l-2.5-2.6c1.3-1.6,3.9-2.6,6.7-2.6
				C109.8,79.1,113.2,81.1,113.2,85.4z M108.3,89.5v-0.4c-0.7-0.5-1.9-0.9-3.2-0.9c-1.7,0-2.3,0.9-2.3,1.5c0,0.8,0.8,1.4,2,1.4
				C105.9,91.1,107.6,90.5,108.3,89.5z"/>
			<path class="st0" d="M14.7,125.7H9.1l-4.5-6v6H0V103h4.6v12.1l3.1-4.1h5.8l-5.5,6.5L14.7,125.7z"/>
			<path class="st0" d="M14.6,118.4c0-4.7,3.7-7.8,7.9-7.8s7.9,3.1,7.9,7.8c0,4.6-3.8,7.7-7.9,7.7S14.6,123,14.6,118.4z M25.7,118.4
				c0-2-1.4-3.4-3.2-3.4c-1.8,0-3.2,1.4-3.2,3.4s1.4,3.4,3.2,3.4C24.3,121.8,25.7,120.4,25.7,118.4z"/>
			<path class="st0" d="M44.6,111.1l-1.1,4.4c-0.9-0.5-1.6-0.6-2.1-0.6c-1.8,0-3.3,1.5-3.3,5.9v4.9h-4.6V111H38v3.1
				c0.8-2.4,2.6-3.5,4.4-3.5C43.1,110.6,43.8,110.7,44.6,111.1z"/>
			<path class="st0" d="M56.4,111H61v14.7h-4.6v-2.5c-0.5,2-2.8,2.9-4.2,2.9c-3.9,0-5.8-2.6-5.8-7.2V111H51v7.7
				c0,2.3,1.3,3.1,2.5,3.1c1.2,0,2.8-0.7,2.8-3.1V111z"/>
			<path class="st0" d="M79.5,117.8v7.9h-4.6v-7.6c0-2.3-1.4-3.2-2.5-3.2c-1.2,0-2.8,0.7-2.8,3.1v7.7h-4.6V111h4.6v2.6
				c0.6-2,2.8-2.9,4.2-2.9C77.6,110.6,79.5,113.3,79.5,117.8z"/>
			<path class="st0" d="M97.2,116.9v8.8h-4.9v-1.6c-1.1,1.3-3.3,2-5,2c-2.8,0-5.2-1.8-5.2-4.6c0-3.1,3-4.5,5.9-4.5
				c1.6,0,3.2,0.4,4.3,0.9v-0.7c0-1.5-1.2-2.6-3-2.6c-1.4,0-2.9,0.5-3.7,1.3l-2.5-2.6c1.3-1.6,3.9-2.6,6.7-2.6
				C93.8,110.6,97.2,112.6,97.2,116.9z M92.3,121.1v-0.4c-0.7-0.5-1.9-0.9-3.2-0.9c-1.7,0-2.3,0.9-2.3,1.5c0,0.8,0.8,1.4,2,1.4
				C89.9,122.6,91.6,122.1,92.3,121.1z"/>
			<path class="st0" d="M124.4,117.8v7.9h-4.6v-7.8c0-2.3-1.1-3-2.3-3c-1.4,0-2.5,1-2.5,3.6v7.2h-4.6V118c0-2.3-1.1-3.1-2.3-3.1
				c-1.2,0-2.5,0.6-2.5,3.1v7.7h-4.6V111h4.6v2.3c0.6-1.9,2.6-2.7,3.9-2.7c2.2,0,3.7,1,4.6,2.8c1-2,3.2-2.8,4.8-2.8
				C122.5,110.6,124.4,113.3,124.4,117.8z"/>
			<path class="st0" d="M127.5,106.1c0-1.5,1.3-2.7,2.9-2.7c1.6,0,2.8,1.2,2.8,2.7c0,1.5-1.2,2.7-2.8,2.7
				C128.9,108.8,127.5,107.6,127.5,106.1z M128.1,125.7V111h4.6v14.7H128.1z"/>
			<path class="st0" d="M16,152.5h4.4c0,0.7,0.5,1.6,1.8,1.6c1,0,1.8-0.5,1.8-1.2c0-0.5-0.3-0.7-1.4-0.9l-1.9-0.5
				c-4.3-1.2-4.4-3.6-4.4-4.9c0-2.2,2.4-4.4,6-4.4c2.7,0,6.1,1.3,6,5h-4.4c0-0.9-0.7-1.4-1.6-1.4c-0.8,0-1.4,0.4-1.4,1
				c0,0.6,0.5,0.9,1.2,1.1l2.5,0.7c3.7,1,4,3.3,4,4.3c0,3.2-3.3,4.8-6.3,4.8C19.1,157.6,16,155.8,16,152.5z"/>
			<path class="st0" d="M38.9,157.2c-4.2,0-6.2-1.4-6.2-6.1V146h-2.6v-3.5h2.6v-3l4.6-1.4v4.4h3v3.5h-3v4.8c0,1.7,0.8,2,2.2,2h1v4.3
				H38.9z"/>
			<path class="st0" d="M54.8,142.6l-1.1,4.4c-0.9-0.5-1.6-0.6-2.1-0.6c-1.8,0-3.3,1.5-3.3,5.9v4.9h-4.6v-14.7h4.6v3.1
				c0.8-2.4,2.6-3.5,4.4-3.5C53.3,142.1,54,142.2,54.8,142.6z"/>
			<path class="st0" d="M55.5,149.9c0-4.7,3.7-7.8,7.9-7.8c4.2,0,7.9,3.1,7.9,7.8c0,4.6-3.8,7.7-7.9,7.7
				C59.3,157.6,55.5,154.5,55.5,149.9z M66.7,149.9c0-2-1.4-3.4-3.2-3.4c-1.8,0-3.2,1.4-3.2,3.4s1.4,3.4,3.2,3.4
				C65.2,153.3,66.7,151.9,66.7,149.9z"/>
			<path class="st0" d="M97.9,149.3v7.9h-4.6v-7.8c0-2.3-1.1-3-2.3-3c-1.4,0-2.5,1-2.5,3.6v7.2h-4.6v-7.7c0-2.3-1.1-3.1-2.3-3.1
				c-1.2,0-2.5,0.6-2.5,3.1v7.7h-4.6v-14.7H79v2.3c0.6-1.9,2.6-2.7,3.9-2.7c2.2,0,3.7,1,4.6,2.8c1-2,3.2-2.8,4.8-2.8
				C96,142.1,97.9,144.8,97.9,149.3z"/>
			<path class="st0" d="M111.3,142.5h4.6v14.7h-4.6v-2.5c-0.5,2-2.8,2.9-4.2,2.9c-3.9,0-5.8-2.6-5.8-7.2v-7.9h4.6v7.7
				c0,2.3,1.3,3.1,2.5,3.1c1.2,0,2.8-0.7,2.8-3.1V142.5z"/>
		</g>
	</g>
</g>
</svg>
