<?xml version="1.0" encoding="utf-8"?>
<!-- Generator: Adobe Illustrator 27.0.1, SVG Export Plug-In . SVG Version: 6.00 Build 0)  -->
<svg version="1.1" id="Ebene_1" xmlns="http://www.w3.org/2000/svg" xmlns:xlink="http://www.w3.org/1999/xlink" x="0px" y="0px"
	 viewBox="0 0 109 182" style="enable-background:new 0 0 109 182;" xml:space="preserve">
<style type="text/css">
	.st0{filter:url(#Rechteck_938);}
	.st1{fill:#FFFFFF;}
	.st2{fill:#EC6608;}
	.st3{fill:#00843D;}
	.st4{fill:#ABD107;}
	.st5{fill:#4E3629;}
</style>
<filter  filterUnits="userSpaceOnUse" height="182" id="Rechteck_938" width="109" x="0" y="0">
	<feOffset  dy="3" input="SourceAlpha"></feOffset>
	<feGaussianBlur  result="blur" stdDeviation="3"></feGaussianBlur>
	<feFlood  flood-opacity="0.161"></feFlood>
	<feComposite  in2="blur" operator="in"></feComposite>
	<feComposite  in="SourceGraphic" operator="over"></feComposite>
</filter>
<g id="Rechteck_938-2" class="st0">
	<path class="st1" d="M9,6h91l0,0v160c0,2.2-1.8,4-4,4H13c-2.2,0-4-1.8-4-4V6L9,6z"/>
</g>
<g>
	<g>
		<g>
			<path class="st2" d="M37.9,120.6h-1.3l-3-3.3v3.3h-1V113h1v3.3l2.5-3.3h1.2l-2.9,3.8L37.9,120.6z"/>
			<path class="st2" d="M41.9,115.5l-0.2,0.9c-0.3-0.1-0.5-0.2-0.7-0.2c-1,0-1.4,1.1-1.4,2.5v1.9h-1v-5.1h1v1.2
				c0.3-0.9,0.8-1.3,1.4-1.3C41.4,115.3,41.7,115.4,41.9,115.5z"/>
			<path class="st2" d="M47.5,120.6h-1.3l-2.4-2.5v2.5h-1v-7.9h1v4.6l1.8-1.8h1.3l-2.2,2.2L47.5,120.6z"/>
			<path class="st2" d="M47.5,118c0-1.6,1.2-2.7,2.7-2.7s2.7,1.1,2.7,2.7c0,1.6-1.2,2.7-2.7,2.7S47.5,119.7,47.5,118z M52,118
				c0-1.1-0.8-1.8-1.7-1.8c-0.9,0-1.7,0.7-1.7,1.8c0,1.1,0.8,1.8,1.7,1.8C51.2,119.8,52,119.1,52,118z"/>
			<path class="st2" d="M59,117.6v3h-1v-2.9c0-0.9-0.5-1.4-1.2-1.4c-0.7,0-1.6,0.4-1.6,1.5v2.8h-1v-5.1h1v0.8
				c0.3-0.6,1.1-0.9,1.7-0.9C58.2,115.3,59,116.2,59,117.6z"/>
			<path class="st2" d="M60.2,118c0-1.6,1.2-2.7,2.7-2.7c1.5,0,2.7,1.1,2.7,2.7c0,1.6-1.2,2.7-2.7,2.7
				C61.4,120.8,60.2,119.7,60.2,118z M64.6,118c0-1.1-0.8-1.8-1.7-1.8c-0.9,0-1.7,0.7-1.7,1.8c0,1.1,0.8,1.8,1.7,1.8
				C63.8,119.8,64.6,119.1,64.6,118z"/>
			<path class="st2" d="M66.5,119.1h0.9c0,0.4,0.4,0.8,1,0.8c0.6,0,1-0.3,1-0.7c0-0.4-0.3-0.6-0.7-0.7l-0.7-0.2
				c-0.9-0.2-1.4-0.7-1.4-1.5c0-0.8,0.7-1.5,1.8-1.5c0.9,0,1.8,0.5,1.8,1.5h-0.9c0-0.4-0.4-0.7-0.8-0.7c-0.5,0-0.8,0.3-0.8,0.7
				c0,0.4,0.3,0.5,0.7,0.6l0.8,0.2c1.1,0.3,1.3,0.9,1.3,1.5c0,1-0.9,1.6-2,1.6C67.5,120.8,66.6,120.2,66.5,119.1z M68,114.7
				l-1.2-1.7h0.9l0.8,1l0.8-1h0.9l-1.2,1.7H68z"/>
			<path class="st2" d="M76.5,118.5h-4.2c0.1,0.9,0.8,1.4,1.7,1.4c0.6,0,1.2-0.3,1.5-0.8l0.8,0.3c-0.4,0.9-1.4,1.4-2.4,1.4
				c-1.5,0-2.6-1.1-2.6-2.7c0-1.6,1.2-2.7,2.6-2.7c1.5,0,2.6,1.1,2.6,2.7C76.6,118.2,76.5,118.3,76.5,118.5z M75.6,117.6
				c-0.1-0.9-0.7-1.4-1.6-1.4c-0.9,0-1.5,0.5-1.6,1.4H75.6z"/>
		</g>
	</g>
	<rect x="53" y="50.1" class="st2" width="3.2" height="12"/>
	<polygon class="st3" points="61.9,48.6 57.6,40.2 61.9,40.2 54.5,26 47.2,40.2 51.5,40.2 47.2,48.6 	"/>
	<rect x="53" y="123.6" class="st2" width="3.2" height="12"/>
	<path class="st4" d="M61,143.5c0,3.6-2.9,6.5-6.5,6.5c-3.6,0-6.5-2.9-6.5-6.5c0-3.6,2.9-6.5,6.5-6.5C58.1,137,61,139.9,61,143.5"/>
	<g>
		<g>
			<path class="st5" d="M77.6,99.3H80v7.6h-2.4v-1.3c-0.3,1.1-1.5,1.5-2.2,1.5c-2,0-3-1.4-3-3.7v-4.1h2.4v4c0,1.2,0.7,1.6,1.3,1.6
				c0.6,0,1.5-0.3,1.5-1.6V99.3z M74.2,96.2c0-1.1,0.9-2.1,2.1-2.1c1.1,0,2.1,0.9,2.1,2.1c0,1.1-0.9,2-2.1,2
				C75.1,98.2,74.2,97.3,74.2,96.2z M75.2,96.2c0,0.6,0.5,1,1.1,1c0.6,0,1.1-0.4,1.1-1c0-0.6-0.5-1.1-1.1-1.1
				C75.7,95.1,75.2,95.6,75.2,96.2z"/>
		</g>
		<g>
			<path class="st5" d="M29.9,71.3h2.5c0,0.7,0.7,1.3,1.6,1.3c0.8,0,1.5-0.4,1.5-1.2c0-0.4-0.2-0.8-1.2-1.2l-1.3-0.4
				c-2.5-0.7-2.9-2.2-2.9-3.2c0-2,1.7-3.4,3.9-3.4c2.1,0,3.8,1.3,3.8,3.5h-2.5c0-0.7-0.4-1.2-1.3-1.2c-0.8,0-1.3,0.5-1.3,1.2
				c0,0.2,0.1,0.7,1.1,1l1.2,0.4c1.6,0.5,3.2,1.3,3.2,3.3c0,2.4-2.1,3.5-4.1,3.5C31.6,74.7,29.9,73.3,29.9,71.3z"/>
			<path class="st5" d="M43.4,74.5c-2.2,0-3.2-0.7-3.2-3.1v-2.6h-1.4v-1.8h1.4v-1.6l2.4-0.7v2.3h1.6v1.8h-1.6v2.5
				c0,0.9,0.4,1.1,1.1,1.1h0.5v2.2H43.4z"/>
			<path class="st5" d="M53.4,71.4h-5.5c0.2,0.7,0.9,1.2,1.8,1.2c0.7,0,1.4-0.3,1.9-0.8l1.2,1.6c-0.7,0.8-2,1.3-3.3,1.3
				c-2.4,0-4.1-1.7-4.1-4c0-2.5,1.9-4,4.1-4c2.2,0,4,1.5,4,3.8C53.4,70.8,53.4,71.1,53.4,71.4z M51.1,70c0-0.7-0.7-1.2-1.6-1.2
				c-0.7,0-1.4,0.3-1.6,1.2H51.1z"/>
			<path class="st5" d="M61.4,66.9v1.8L58,72.3h3.4v2.2h-6.8v-1.8l3.3-3.6h-3.1v-2.2H61.4z"/>
			<path class="st5" d="M70.7,74.5h-2.9l-2.3-3.1v3.1h-2.4V62.8h2.4v6.2l1.6-2.1h3l-2.8,3.4L70.7,74.5z"/>
			<path class="st5" d="M78.7,70v4.5h-2.5v-0.8c-0.6,0.7-1.7,1-2.6,1c-1.5,0-2.7-0.9-2.7-2.4c0-1.6,1.5-2.3,3.1-2.3
				c0.8,0,1.7,0.2,2.2,0.5v-0.3c0-0.8-0.6-1.3-1.5-1.3c-0.7,0-1.5,0.2-1.9,0.7l-1.3-1.3c0.7-0.8,2-1.3,3.5-1.3
				C76.9,66.7,78.7,67.7,78.7,70z M76.2,72.1v-0.2c-0.4-0.3-1-0.5-1.7-0.5c-0.9,0-1.2,0.4-1.2,0.7c0,0.4,0.4,0.7,1.1,0.7
				C74.9,72.9,75.8,72.6,76.2,72.1z"/>
			<path class="st5" d="M27.7,90.7h-2.9l-2.3-3.1v3.1H20V79h2.4v6.2l1.6-2.1h3l-2.8,3.4L27.7,90.7z"/>
			<path class="st5" d="M27.6,87c0-2.4,1.9-4,4.1-4s4.1,1.6,4.1,4c0,2.4-2,4-4.1,4S27.6,89.3,27.6,87z M33.4,87c0-1-0.7-1.8-1.7-1.8
				c-0.9,0-1.7,0.7-1.7,1.8s0.7,1.8,1.7,1.8C32.6,88.7,33.4,88,33.4,87z"/>
			<path class="st5" d="M43.1,83.2l-0.6,2.3c-0.5-0.3-0.8-0.3-1.1-0.3c-0.9,0-1.7,0.8-1.7,3v2.5h-2.4v-7.6h2.4v1.6
				c0.4-1.2,1.3-1.8,2.3-1.8C42.4,83,42.7,83,43.1,83.2z"/>
			<path class="st5" d="M49.2,83.2h2.4v7.6h-2.4v-1.3c-0.3,1.1-1.5,1.5-2.2,1.5c-2,0-3-1.4-3-3.7v-4.1h2.4v3.9
				c0,1.2,0.7,1.6,1.3,1.6c0.6,0,1.5-0.3,1.5-1.6V83.2z"/>
			<path class="st5" d="M61.2,86.7v4.1h-2.4v-3.9c0-1.2-0.7-1.6-1.3-1.6c-0.6,0-1.5,0.3-1.5,1.6v3.9h-2.4v-7.6H56v1.3
				c0.3-1,1.5-1.5,2.2-1.5C60.2,83,61.2,84.3,61.2,86.7z"/>
			<path class="st5" d="M70.4,86.2v4.5h-2.5v-0.8c-0.6,0.7-1.7,1-2.6,1c-1.5,0-2.7-0.9-2.7-2.4c0-1.6,1.5-2.3,3.1-2.3
				c0.8,0,1.7,0.2,2.2,0.5v-0.3c0-0.8-0.6-1.3-1.5-1.3c-0.7,0-1.5,0.2-1.9,0.7l-1.3-1.3c0.7-0.8,2-1.3,3.5-1.3
				C68.6,83,70.4,84,70.4,86.2z M67.9,88.3v-0.2c-0.4-0.3-1-0.5-1.7-0.5c-0.9,0-1.2,0.4-1.2,0.7c0,0.4,0.4,0.7,1.1,0.7
				C66.6,89.1,67.5,88.9,67.9,88.3z"/>
			<path class="st5" d="M84.5,86.7v4.1h-2.4v-4c0-1.2-0.6-1.5-1.2-1.5c-0.7,0-1.3,0.5-1.3,1.8v3.7h-2.4v-4c0-1.2-0.6-1.6-1.2-1.6
				c-0.6,0-1.3,0.3-1.3,1.6v4h-2.4v-7.6h2.4v1.2c0.3-1,1.3-1.4,2-1.4c1.1,0,1.9,0.5,2.4,1.4c0.5-1,1.7-1.4,2.5-1.4
				C83.5,83,84.5,84.3,84.5,86.7z"/>
			<path class="st5" d="M86.1,80.6c0-0.8,0.7-1.4,1.5-1.4c0.8,0,1.5,0.6,1.5,1.4c0,0.8-0.6,1.4-1.5,1.4C86.8,82,86.1,81.4,86.1,80.6
				z M86.4,90.7v-7.6h2.4v7.6H86.4z"/>
			<path class="st5" d="M28.3,104.5h2.3c0,0.4,0.3,0.8,1,0.8c0.5,0,0.9-0.3,0.9-0.6c0-0.2-0.2-0.4-0.7-0.5l-1-0.3
				c-2.2-0.6-2.3-1.9-2.3-2.5c0-1.1,1.3-2.3,3.1-2.3c1.4,0,3.2,0.7,3.1,2.6h-2.3c0-0.5-0.3-0.7-0.8-0.7c-0.4,0-0.7,0.2-0.7,0.5
				c0,0.3,0.3,0.5,0.6,0.6l1.3,0.4c1.9,0.5,2.1,1.7,2.1,2.2c0,1.7-1.7,2.5-3.3,2.5C29.9,107.1,28.3,106.2,28.3,104.5z"/>
			<path class="st5" d="M40.2,107c-2.2,0-3.2-0.7-3.2-3.1v-2.6h-1.4v-1.8H37v-1.6l2.4-0.7v2.3h1.6v1.8h-1.6v2.5
				c0,0.9,0.4,1.1,1.1,1.1H41v2.2H40.2z"/>
			<path class="st5" d="M48.4,99.4l-0.6,2.3c-0.5-0.3-0.8-0.3-1.1-0.3c-0.9,0-1.7,0.8-1.7,3v2.5h-2.4v-7.6H45v1.6
				c0.4-1.2,1.3-1.8,2.3-1.8C47.6,99.2,48,99.2,48.4,99.4z"/>
			<path class="st5" d="M48.8,103.2c0-2.4,1.9-4,4.1-4c2.2,0,4.1,1.6,4.1,4c0,2.4-2,4-4.1,4C50.8,107.1,48.8,105.6,48.8,103.2z
				 M54.6,103.2c0-1-0.7-1.8-1.7-1.8c-0.9,0-1.7,0.7-1.7,1.8s0.7,1.8,1.7,1.8C53.8,104.9,54.6,104.2,54.6,103.2z"/>
			<path class="st5" d="M70.7,102.9v4.1h-2.4v-4c0-1.2-0.6-1.5-1.2-1.5c-0.7,0-1.3,0.5-1.3,1.8v3.7h-2.4v-4c0-1.2-0.6-1.6-1.2-1.6
				c-0.6,0-1.3,0.3-1.3,1.6v4h-2.4v-7.6H61v1.2c0.3-1,1.3-1.4,2-1.4c1.1,0,1.9,0.5,2.4,1.4c0.5-1,1.7-1.4,2.5-1.4
				C69.8,99.2,70.7,100.6,70.7,102.9z"/>
			<path class="st5" d="M77.7,99.4h2.4v7.6h-2.4v-1.3c-0.3,1.1-1.5,1.5-2.2,1.5c-2,0-3-1.4-3-3.7v-4.1h2.4v3.9
				c0,1.2,0.7,1.6,1.3,1.6c0.6,0,1.5-0.3,1.5-1.6V99.4z"/>
		</g>
	</g>
</g>
</svg>
