<svg xmlns="http://www.w3.org/2000/svg" xml:space="preserve" fill-rule="evenodd" stroke-linejoin="round" stroke-miterlimit="2" clip-rule="evenodd" viewBox="0 0 101 174"><g fill-rule="nonzero"><path fill="#f37021" d="M47.35 34.938h4.385v16.557H47.35z"/><path fill="#0c8a48" d="M49.549 1.758 39.416 21.336h5.97l-5.97 11.534H59.67l-5.963-11.534h5.963L49.549 1.758Z"/><path fill="#f37021" d="M47.35 135.818h4.385v16.557H47.35z"/><path fill="#a1cd3f" d="M58.521 163.293c0 4.949-4.028 8.967-8.98 8.967-4.958 0-8.976-4.018-8.976-8.967 0-4.958 4.018-8.98 8.976-8.98 4.952 0 8.98 4.022 8.98 8.98Z"/><path fill="#fff" d="M16.103 64.56h3.524c0 .988.987 1.751 2.199 1.751 1.145 0 2.02-.583 2.02-1.593 0-.606-.337-1.167-1.706-1.617l-1.84-.561c-3.412-.92-4.063-3.007-4.063-4.466 0-2.784 2.379-4.736 5.455-4.736 2.962 0 5.23 1.773 5.23 4.78h-3.524c0-.919-.562-1.705-1.774-1.705-1.099 0-1.818.741-1.818 1.593 0 .315.09 1.01 1.526 1.414l1.616.517c2.2.673 4.445 1.795 4.445 4.601 0 3.322-2.873 4.804-5.701 4.804-3.3 0-5.589-1.931-5.589-4.782ZM34.822 69.072c-3.03 0-4.444-1.033-4.444-4.309v-3.659h-1.886V58.59h1.886v-2.155l3.322-1.01v3.165h2.177v2.514H33.7v3.434c.022 1.19.583 1.459 1.549 1.459h.718v3.075h-1.145ZM45.44 62.855c-.045-1.033-.966-1.729-2.155-1.729-.988 0-1.953.471-2.29 1.729h4.445Zm3.254 1.952h-7.676c.314 1.011 1.189 1.639 2.446 1.639.988 0 1.998-.449 2.649-1.078l1.706 2.155c-1.033 1.123-2.828 1.819-4.579 1.819-3.322 0-5.656-2.29-5.656-5.477 0-3.412 2.626-5.544 5.633-5.544 3.008 0 5.522 2.109 5.522 5.297 0 .291-.023.673-.045 1.189ZM59.714 58.59v2.469l-4.713 4.938h4.713v3.075H50.22v-2.447l4.646-4.96h-4.354V58.59h9.202ZM72.733 69.072h-4.041l-3.231-4.265v4.265h-3.323V52.889h3.323v8.641l2.244-2.94h4.175l-3.951 4.646 4.804 5.836ZM80.252 65.75v-.269c-.516-.359-1.347-.651-2.312-.651-1.257 0-1.661.606-1.661 1.032 0 .584.606.988 1.459.988.786 0 1.953-.381 2.514-1.1Zm3.502-2.94v6.262h-3.502v-1.167c-.786.92-2.402 1.437-3.591 1.437-2.043 0-3.748-1.258-3.748-3.3 0-2.222 2.132-3.232 4.242-3.232 1.144 0 2.311.269 3.097.651v-.472c0-1.055-.83-1.863-2.132-1.863-1.01 0-2.088.337-2.671.921l-1.796-1.864c.965-1.122 2.806-1.862 4.849-1.862 2.828 0 5.252 1.391 5.252 4.489ZM12.994 91.072h-4.04l-3.233-4.265v4.265H2.4V74.889h3.321v8.641l2.245-2.94h4.175l-3.95 4.646 4.803 5.836ZM20.895 85.842c0-1.436-1.033-2.446-2.312-2.446-1.28 0-2.312 1.01-2.312 2.446 0 1.437 1.032 2.424 2.312 2.424 1.279 0 2.312-.987 2.312-2.424Zm-7.991 0c0-3.322 2.693-5.521 5.679-5.521 2.985 0 5.701 2.199 5.701 5.521 0 3.299-2.716 5.5-5.701 5.5-2.986 0-5.679-2.201-5.679-5.5ZM34.429 80.635l-.785 3.165a2.765 2.765 0 0 0-1.504-.404c-1.302 0-2.38 1.099-2.38 4.197v3.479h-3.321V80.59h3.277v2.222c.606-1.728 1.863-2.491 3.142-2.491.494 0 1.033.045 1.571.314ZM42.914 80.59h3.322v10.482h-3.322v-1.796c-.359 1.459-2.043 2.066-3.008 2.066-2.783 0-4.152-1.886-4.152-5.096V80.59h3.322v5.454c0 1.616.965 2.222 1.818 2.222.875 0 2.02-.471 2.02-2.222V80.59ZM59.501 85.438v5.634h-3.323V85.64c0-1.616-.987-2.244-1.818-2.244-.897 0-2.02.471-2.02 2.222v5.454h-3.321V80.59h3.321v1.818c.404-1.437 2.042-2.087 3.008-2.087 2.783 0 4.153 1.907 4.153 5.117ZM68.748 87.75v-.269c-.516-.359-1.347-.651-2.312-.651-1.257 0-1.661.606-1.661 1.032 0 .584.606.988 1.459.988.786 0 1.953-.381 2.514-1.1Zm3.502-2.94v6.262h-3.502v-1.167c-.785.92-2.402 1.437-3.591 1.437-2.043 0-3.748-1.257-3.748-3.3 0-2.222 2.132-3.232 4.242-3.232 1.145 0 2.312.269 3.097.651v-.472c0-1.055-.83-1.863-2.132-1.863-1.01 0-2.088.337-2.671.921l-1.796-1.864c.965-1.122 2.806-1.862 4.849-1.862 2.828 0 5.252 1.391 5.252 4.489ZM91.799 85.438v5.634h-3.321v-5.544c0-1.616-.808-2.132-1.661-2.132-1.033 0-1.796.718-1.796 2.558v5.118h-3.322v-5.476c0-1.617-.808-2.2-1.639-2.2-.897 0-1.817.449-1.817 2.2v5.476h-3.322V80.59h3.322v1.661c.403-1.324 1.84-1.93 2.828-1.93 1.549 0 2.693.74 3.321 1.997.719-1.391 2.335-1.997 3.435-1.997 2.626 0 3.972 1.907 3.972 5.117ZM94.448 91.072V80.59h3.322v10.482h-3.322Zm-.404-13.984c0-1.099.943-1.93 2.065-1.93 1.122 0 2.02.831 2.02 1.93 0 1.055-.898 1.931-2.02 1.931-1.122 0-2.065-.876-2.065-1.931ZM13.869 110.128h3.142c0 .517.382 1.123 1.325 1.123.695 0 1.279-.359 1.279-.853 0-.337-.247-.493-1.033-.673l-1.369-.359c-3.075-.831-3.165-2.581-3.165-3.457 0-1.549 1.751-3.143 4.288-3.143 1.975 0 4.377.921 4.332 3.547h-3.143c0-.674-.471-1.01-1.122-1.01-.562 0-1.033.27-1.033.718 0 .404.36.629.898.764l1.818.493c2.627.718 2.851 2.38 2.851 3.097 0 2.313-2.402 3.412-4.512 3.412-2.334 0-4.556-1.279-4.556-3.659ZM30.322 113.518c-3.03 0-4.444-1.032-4.444-4.31v-3.658h-1.886v-2.515h1.886v-2.153l3.321-1.01v3.163h2.178v2.515h-2.178v3.434c.023 1.189.584 1.459 1.549 1.459h.718v3.075h-1.144ZM41.769 103.08l-.785 3.165a2.774 2.774 0 0 0-1.504-.404c-1.302 0-2.38 1.101-2.38 4.197v3.48h-3.322v-10.483h3.278v2.223c.606-1.728 1.863-2.492 3.142-2.492.494 0 1.033.045 1.571.314ZM50.298 108.288c0-1.436-1.032-2.447-2.312-2.447-1.279 0-2.312 1.011-2.312 2.447 0 1.437 1.033 2.424 2.312 2.424 1.28 0 2.312-.987 2.312-2.424Zm-7.99 0c0-3.322 2.693-5.522 5.678-5.522s5.701 2.2 5.701 5.522c0 3.299-2.716 5.499-5.701 5.499-2.985 0-5.678-2.2-5.678-5.499ZM72.72 107.884v5.634h-3.321v-5.544c0-1.616-.809-2.133-1.661-2.133-1.033 0-1.796.719-1.796 2.56v5.117H62.62v-5.477c0-1.616-.808-2.2-1.639-2.2-.897 0-1.817.449-1.817 2.2v5.477h-3.323v-10.483h3.323v1.662c.403-1.325 1.84-1.931 2.828-1.931 1.549 0 2.693.741 3.321 1.998.719-1.392 2.335-1.998 3.435-1.998 2.626 0 3.972 1.908 3.972 5.118ZM79.028 98.749c0 .831.674 1.414 1.459 1.414.809 0 1.504-.583 1.504-1.414 0-.83-.695-1.482-1.504-1.482-.785 0-1.459.652-1.459 1.482Zm-1.369 0a2.831 2.831 0 0 1 2.828-2.828c1.571 0 2.851 1.257 2.851 2.828s-1.28 2.783-2.851 2.783c-1.548 0-2.828-1.212-2.828-2.783Zm4.736 4.286h3.322v10.483h-3.322v-1.796c-.359 1.459-2.042 2.065-3.008 2.065-2.783 0-4.152-1.885-4.152-5.095v-5.657h3.322v5.456c0 1.615.965 2.221 1.819 2.221.875 0 2.019-.471 2.019-2.221v-5.456Z"/><path fill="#f37021" d="M33.51 130.557h4.277v1.274H32.13V121.38h1.38v9.177ZM39.256 131.831v-7.084h1.319v7.084h-1.319Zm-.273-9.692c0-.501.424-.88.925-.88.516 0 .94.379.94.88 0 .5-.424.879-.94.879-.501 0-.925-.379-.925-.879ZM48.916 128.312c0-1.411-1.032-2.503-2.336-2.503-1.259 0-2.396.986-2.396 2.503a2.421 2.421 0 0 0 2.396 2.457c1.304 0 2.336-1.031 2.336-2.457Zm1.335-.016c0 2.246-1.593 3.716-3.534 3.716-1.062 0-2.063-.455-2.533-1.289v4.551h-1.32v-10.527h1.32v1.108c.47-.804 1.501-1.289 2.518-1.289 1.941 0 3.549 1.501 3.549 3.73ZM58.605 127.736v4.095h-1.319v-4.02c0-1.183-.729-1.942-1.714-1.942-.986 0-2.169.592-2.169 2.125v3.837h-1.32v-7.084h1.32v1.078c.424-.866 1.577-1.259 2.351-1.259 1.759 0 2.866 1.182 2.851 3.17ZM66.413 128.282c0-1.456-1.092-2.473-2.397-2.473-1.289 0-2.366 1.017-2.366 2.473 0 1.47 1.077 2.487 2.366 2.487 1.305 0 2.397-1.017 2.397-2.487Zm-6.098 0c0-2.246 1.684-3.716 3.701-3.716 2.018 0 3.716 1.47 3.716 3.716 0 2.245-1.698 3.73-3.716 3.73-2.017 0-3.701-1.485-3.701-3.73Z"/></g></svg>